<svg width="50" height="50" viewBox="0 0 50 50" fill="none" xmlns="http://www.w3.org/2000/svg">
<path fill-rule="evenodd" clip-rule="evenodd" d="M14.4659 23.7169C12.088 25.6749 7.37025 31.0465 5.13033 33.2774C4.70584 33.7004 4.36453 34.0148 4.1386 34.1836C3.99142 34.2935 3.87224 34.3532 3.79244 34.3762C3.51745 34.4554 3.1016 34.3585 2.64553 34.0745C1.80519 33.5507 0.749872 32.423 0.282011 31.5349C-0.166057 30.6839 -0.063094 29.9849 0.469619 29.7136C0.642908 29.6253 1.03055 29.2221 1.5681 28.64C3.79812 26.2261 8.21817 20.7968 9.82831 18.7746C9.71229 18.6061 9.62912 18.4784 9.58679 18.4057C9.5211 18.2929 9.4613 18.1021 9.53731 17.8349C9.58785 17.6575 9.75524 17.3404 10.0231 16.9252C9.57669 16.2893 9.44383 15.8103 9.43919 15.4482C9.43456 15.0956 9.54026 14.816 9.68807 14.574C9.76851 14.4431 9.86221 14.3254 9.94622 14.2104C9.97991 14.1642 10.0269 14.0817 10.0405 14.0573C10.0344 14.0414 10.0205 14.0071 10.0066 13.9836C9.95822 13.9007 9.91253 13.8349 9.86642 13.7854C9.85673 13.7749 9.84726 13.7637 9.83841 13.7522C9.8222 13.7394 9.80557 13.7297 9.78809 13.7235C9.74871 13.7094 9.71145 13.7297 9.67165 13.7458C9.59964 13.7752 9.52658 13.8172 9.45056 13.8608C9.12757 14.0463 8.76688 14.2432 8.33208 14.2055C7.88569 14.1669 7.46142 13.9173 7.10579 13.5146C6.62677 12.9722 6.27176 12.1455 6.1629 11.2703C6.12437 10.9603 6.20544 10.5363 6.42674 10.0443C6.68909 9.46148 7.15169 8.7407 7.73536 7.96512C9.27096 5.9251 11.656 3.47674 13.2467 2.15017C14.0066 1.51674 14.6189 1.1446 14.9093 1.10472C15.4879 1.0252 15.996 1.25079 16.4171 1.62219C16.9816 2.12008 17.3808 2.8871 17.5737 3.39111C17.7546 3.8638 17.6371 4.17673 17.4246 4.44195C17.3646 4.51706 17.2926 4.58703 17.2191 4.65627C17.1854 4.68808 17.1336 4.74435 17.105 4.77567C17.1225 4.81775 17.1581 4.89947 17.1991 4.96284C17.2707 5.07318 17.3097 5.14413 17.365 5.16028C17.373 5.16248 17.3806 5.16395 17.3884 5.16468C17.404 5.15955 17.42 5.15539 17.4362 5.15221C17.4655 5.14658 17.4956 5.14022 17.5261 5.13386C17.5354 5.13117 17.5446 5.12847 17.5543 5.12652C17.6411 5.10743 17.7341 5.08982 17.8375 5.0837C18.1744 5.06364 18.6339 5.14364 19.3371 5.79543C19.4742 5.92266 19.6399 6.09735 19.8275 6.31167C19.9884 6.21748 20.1358 6.14481 20.2674 6.09514C20.5735 5.97966 20.8256 5.97966 21.0096 6.05184C21.253 6.14701 21.6196 6.42887 22.0331 6.84896C22.889 7.71874 24.0094 9.19309 24.7089 10.4345C24.9803 10.9158 25.189 11.3655 25.3046 11.7366C25.4046 12.0579 25.4368 12.337 25.4126 12.5526C25.3913 12.7397 25.2416 13.0879 24.963 13.5354C25.5258 14.4399 25.9434 15.1786 26.1036 15.5734C26.1329 15.6456 26.1624 15.7058 26.1937 15.7538C26.2022 15.7667 26.2074 15.7809 26.2129 15.7917C26.2207 15.7993 26.2287 15.8054 26.2373 15.81C26.2895 15.812 26.3388 15.7689 26.3955 15.7303C26.5254 15.6422 26.658 15.5196 26.7932 15.3983C27.0278 15.1879 27.2693 14.9833 27.5045 14.873C27.7315 14.7668 27.9574 14.7377 28.1774 14.8042C28.6884 14.9589 29.3818 15.4976 29.9629 16.2355C30.5392 16.9673 31.0023 17.8872 31.1038 18.7656C31.1414 19.0932 31.0549 19.5311 30.8267 20.0369C30.5521 20.6451 30.0686 21.3916 29.4561 22.1982C27.1436 25.2431 22.9682 29.1964 21.8034 29.8709C21.2235 30.2068 20.7352 30.3162 20.3013 30.2739C19.7852 30.2235 19.3361 29.9583 18.8954 29.5352C18.5162 29.1712 18.1386 28.6838 17.707 28.1406C17.3852 27.7357 17.26 27.3766 17.2288 27.0629C17.1949 26.7248 17.269 26.4241 17.3903 26.1454C17.4684 25.9661 17.568 25.798 17.6493 25.6316C17.6908 25.5465 17.7407 25.4694 17.7308 25.3789C17.7291 25.3647 17.7263 25.3507 17.7221 25.337C17.7165 25.3275 17.711 25.318 17.7059 25.3079C17.6651 25.2296 17.5971 25.1511 17.5017 25.0628C17.1041 24.6945 16.5481 24.1127 15.8888 23.3993C15.4961 23.6714 15.186 23.812 15.0024 23.8221C14.8444 23.8309 14.6634 23.7964 14.4659 23.7169ZM10.764 13.4671C10.9034 13.7279 10.9344 13.9557 10.9169 14.1576C10.8986 14.3673 10.8215 14.5593 10.7036 14.7423C10.6362 14.8466 10.5535 14.9496 10.4739 15.0597C10.4099 15.1485 10.3404 15.2405 10.321 15.366C10.3056 15.4656 10.3277 15.5805 10.385 15.7256C10.4313 15.8428 10.4977 15.9703 10.5872 16.1107C12.2988 13.7661 15.8591 9.61587 18.3024 7.46649C18.5623 7.23773 18.8107 7.03123 19.0442 6.85091C18.9507 6.74938 18.8655 6.66252 18.7899 6.5923C18.4517 6.27889 18.2119 6.14481 18.0184 6.10982L18.0167 6.10958C17.8982 6.08854 17.8007 6.10493 17.7143 6.12548L10.764 13.4671ZM25.4623 16.3167C25.4092 16.2289 25.3582 16.1266 25.31 16.008C25.1755 15.6767 24.8415 15.0878 24.392 14.3584C23.522 15.5311 22.1485 17.1545 20.7192 18.7206C19.2548 20.3253 17.7316 21.8694 16.6333 22.8116C17.2077 23.4306 17.6931 23.9363 18.0485 24.2656C18.0824 24.297 18.1142 24.328 18.1441 24.3589C20.5556 22.2606 23.8416 18.3925 25.4623 16.3167Z" fill="black"/>
<path fill-rule="evenodd" clip-rule="evenodd" d="M19.1331 4.3705C19.6306 2.81345 20.1012 1.61239 20.5162 0.906047C20.8308 0.370476 21.1528 0.088623 21.4168 0.017181C21.4876 -0.00214755 21.6478 -0.0109555 21.8878 0.0223189C22.2752 0.0759004 22.9652 0.222944 23.8803 0.444854C29.0245 1.69215 41.4106 5.32029 46.9537 7.61891C48.2158 8.14225 49.1341 8.60784 49.5611 8.95845C49.9253 9.25767 50.0184 9.59066 49.9971 9.80548C49.8266 11.5296 40.9728 48.1743 40.8515 49.3805C40.8334 49.5605 40.7698 49.6951 40.6806 49.7974C40.5987 49.8913 40.4894 49.9628 40.3435 49.9904C40.1717 50.0232 39.8826 49.974 39.4924 49.8103C37.5683 49.0034 32.157 45.4064 24.5794 45.0293C14.7728 44.5415 13.4038 41.6158 12.4542 40.4355C12.3914 40.3575 12.3215 40.2234 12.2866 40.0159C12.2501 39.7996 12.2411 39.4304 12.268 38.9284C12.3904 36.6369 13.216 31.2217 14.346 25.1479C14.456 25.0478 14.5629 24.9527 14.6663 24.8624C14.8 24.8837 14.9268 24.8898 15.0455 24.8832C15.2081 24.8744 15.4439 24.8125 15.7324 24.6769C16.0608 25.0268 16.3567 25.3336 16.6112 25.5854C16.5986 25.6118 16.5864 25.6387 16.5748 25.6656C16.3741 26.1263 16.2647 26.6267 16.3207 27.1855C16.3689 27.6692 16.539 28.2368 17.0353 28.8614C17.4985 29.4442 17.9064 29.9636 18.313 30.3541C18.9095 30.9266 19.526 31.264 20.2246 31.3325C20.7975 31.3883 21.4459 31.265 22.2112 30.8217C22.6869 30.5462 23.65 29.7449 24.7887 28.6818C24.8276 28.799 24.9036 28.9001 25.0087 28.9586C26.924 30.0228 39.5343 33.7459 39.5343 33.7459C39.7689 33.8151 40.0078 33.6498 40.0672 33.3772C40.1268 33.1044 39.9845 32.8269 39.7499 32.7577C39.7499 32.7577 27.4908 29.1528 25.4376 28.066C26.641 26.9053 27.9643 25.5286 29.0877 24.2067C33.3512 25.7013 41.0345 27.9655 41.0345 27.9655C41.2691 28.0347 41.5081 27.8693 41.5674 27.5968C41.627 27.3239 41.4847 27.0465 41.2501 26.9773C41.2501 26.9773 34.0779 24.8643 29.769 23.3797C29.8977 23.2182 30.0221 23.0585 30.1415 22.9011C30.8121 22.0182 31.3356 21.1961 31.6363 20.5306C31.8559 20.044 31.971 19.595 32.01 19.2065C36.9531 21.0099 42.1456 23.0631 42.1456 23.0631C42.3749 23.1536 42.6242 23.011 42.7024 22.7448C42.7803 22.4784 42.6575 22.1887 42.4282 22.0979C42.4282 22.0979 36.975 19.9417 31.919 18.1052C31.7076 17.1926 31.229 16.2695 30.6376 15.5184C29.9175 14.6043 29.0407 13.9677 28.4078 13.7761C28.001 13.6531 27.5819 13.6912 27.1625 13.8879C26.9541 13.9856 26.7391 14.1351 26.5266 14.3071C26.3942 14.0656 26.2375 13.7933 26.0607 13.4975C26.2207 13.1469 26.2992 12.8653 26.319 12.6903C26.358 12.3439 26.3251 11.8917 26.1643 11.3752C26.0295 10.9419 25.7903 10.4144 25.4738 9.8527C24.7318 8.53567 23.5428 6.97177 22.6349 6.04914C22.1015 5.50745 21.6156 5.1681 21.3018 5.04504C20.9822 4.91977 20.5461 4.88185 20.0189 5.0722C19.9802 5.03378 19.9429 4.99806 19.9073 4.96503C19.6235 4.70202 19.3664 4.50996 19.1331 4.3705ZM30.8599 6.70411C30.4923 7.03025 30.176 7.64729 29.9617 8.41627C29.6713 9.45781 29.5511 10.7817 29.6452 11.8876C29.6606 12.0706 29.7374 12.2827 29.9052 12.4975C30.0602 12.6959 30.3114 12.9198 30.6466 13.1525C32.5962 14.507 37.6744 16.4161 41.0752 17.2976C42.3882 17.6379 43.4591 17.8219 44.0247 17.7818C44.291 17.7632 44.4809 17.6873 44.5938 17.599C44.7069 17.5105 44.7776 17.3994 44.818 17.279C45.0983 16.4396 45.9607 14.2997 46.0947 12.8273C46.1719 11.9786 45.9909 11.3217 45.5628 11.0082C44.7271 10.3963 36.6995 7.33877 32.9773 6.62753C32.2818 6.49468 31.7268 6.4455 31.3789 6.49223C31.1404 6.52452 30.9686 6.60747 30.8599 6.70411ZM25.1264 39.1948C25.0188 38.5313 24.7455 37.3107 25.3644 36.3105C25.6252 35.8887 26.0461 35.5151 26.6923 35.2308C26.9187 35.1312 27.033 34.8369 26.9473 34.5738C26.8616 34.3106 26.6081 34.178 26.3818 34.2776C25.2408 34.7794 24.6548 35.5295 24.3608 36.3085C23.9347 37.4391 24.148 38.6668 24.2642 39.3837C24.309 39.6602 24.5388 39.8422 24.7767 39.7901C25.0146 39.738 25.1713 39.4713 25.1264 39.1948ZM37.6003 39.0382C37.7079 39.7015 37.9812 40.9222 37.3626 41.9224C37.1017 42.3442 36.6806 42.7178 36.0344 43.0021C35.808 43.1016 35.6939 43.3962 35.7796 43.6592C35.8653 43.9222 36.1186 44.0551 36.3452 43.9555C37.4862 43.4535 38.0722 42.7036 38.3659 41.9243C38.7921 40.794 38.5788 39.566 38.4626 38.8494C38.4177 38.5729 38.1882 38.3909 37.9503 38.443C37.7123 38.4951 37.5555 38.7618 37.6003 39.0382ZM31.2134 37.9806C30.8109 37.7048 30.3569 37.4396 29.8892 37.2187C29.039 36.8169 28.1494 36.5576 27.459 36.6166C27.0099 36.655 26.6393 36.8191 26.3976 37.1445C26.3253 37.2341 26.3291 37.3748 26.4062 37.4587C26.483 37.5426 26.6043 37.5382 26.6765 37.4489C26.8799 37.217 27.1838 37.1475 27.5365 37.1612C27.9816 37.1783 28.4994 37.3488 29.0264 37.5923C29.5172 37.8191 30.0128 38.1154 30.4582 38.4312C30.2055 38.6138 30.0297 38.7858 29.9143 38.9401C29.6688 39.2685 29.6338 39.5794 29.6827 39.8368C29.7336 40.1057 29.904 40.3545 30.1802 40.5327C30.443 40.702 30.8189 40.8143 31.1977 40.8461C31.5857 40.8789 31.9748 40.8289 32.2435 40.7083C32.6014 40.5476 32.7926 40.2618 32.808 39.9433C32.82 39.6908 32.6831 39.2998 32.3294 38.9137C32.2349 38.8105 32.1247 38.7028 32.002 38.593C32.9491 38.1636 33.5477 38.3057 33.973 38.7681C34.6649 39.5207 34.9363 40.9143 35.3701 41.7949C35.4189 41.9035 35.5345 41.9458 35.6282 41.8891C35.7217 41.8321 35.7581 41.6977 35.7091 41.5891C35.4322 40.9085 35.2566 39.965 34.9325 39.1762C34.6797 38.5607 34.3335 38.0442 33.8326 37.754C33.2434 37.4127 32.4185 37.3877 31.2134 37.9806ZM31.986 39.7779C31.9923 39.747 32.0018 39.7265 32.0157 39.7458C32.0273 39.7617 32.0115 39.771 31.986 39.7779ZM30.5192 39.6142C30.5043 39.6012 30.5007 39.5883 30.5163 39.5758C30.5239 39.5697 30.5241 39.5909 30.5258 39.6039C30.5232 39.6073 30.5211 39.6108 30.5192 39.6142ZM30.5258 39.6039C30.559 39.5547 30.6399 39.485 30.6978 39.4278C30.8229 39.304 30.9926 39.1709 31.2143 39.0282C31.3905 39.1843 31.5468 39.338 31.6767 39.483C31.7639 39.5802 31.8466 39.703 31.9032 39.7938C31.8961 39.7952 31.8891 39.797 31.883 39.7987C31.7685 39.8317 31.6318 39.8442 31.4886 39.8447C31.2259 39.8461 30.941 39.7999 30.7195 39.7037C30.6635 39.6795 30.5719 39.6506 30.5293 39.6218C30.5283 39.6166 30.5272 39.6122 30.5264 39.6088C30.5262 39.6076 30.526 39.6059 30.5258 39.6039ZM30.5293 39.6218C30.5336 39.6406 30.5382 39.6665 30.5256 39.6612C30.5064 39.6531 30.5068 39.6362 30.5192 39.6142C30.5222 39.6166 30.5256 39.6191 30.5293 39.6218Z" fill="black"/>
<path fill-rule="evenodd" clip-rule="evenodd" d="M5.37836 22.7693C5.01368 15.7499 4.39253 9.80891 4.39253 9.80891C4.3761 9.6511 4.4239 9.49329 4.52181 9.38221C4.61993 9.27138 4.75701 9.21975 4.89239 9.24324C5.17854 9.29242 5.46364 9.33817 5.74768 9.3805C5.71483 9.44705 5.68409 9.51213 5.65546 9.57574C5.3253 10.3095 5.24403 10.9525 5.30151 11.4149C5.43879 12.5178 5.89444 13.5552 6.49811 14.2388C7.00914 14.8174 7.62586 15.1583 8.26722 15.214C8.37292 15.2233 8.47589 15.2236 8.57611 15.2165C8.57022 15.2965 8.5679 15.3787 8.56895 15.4634C8.5738 15.8465 8.65697 16.3348 8.96459 16.9338C8.83278 17.1833 8.74919 17.3832 8.71087 17.5176C8.57358 18.0003 8.62412 18.3837 8.72477 18.6687C7.89201 19.7058 6.66361 21.2176 5.37836 22.7693ZM13.2838 26.0913C12.2527 31.7543 11.5163 36.6966 11.4005 38.866C11.3673 39.4865 11.3885 39.9425 11.4336 40.2099C11.5105 40.667 11.6808 40.953 11.8193 41.1252C12.2318 41.6381 12.7247 42.4445 13.8401 43.2729C14.0553 43.4327 14.2945 43.5937 14.5623 43.7534C9.62532 43.7789 4.85702 44.1471 4.85702 44.1471C4.70247 44.1591 4.55403 44.0754 4.46622 43.9271C4.37863 43.7786 4.36494 43.5875 4.43001 43.4241C5.19644 41.5028 5.52428 38.075 5.61187 34.1295C5.63988 34.1019 5.66809 34.0738 5.69673 34.0454C7.47068 32.2784 10.8066 28.5265 13.2838 26.0913Z" fill="black"/>
</svg>
