<svg width="50" height="50" viewBox="0 0 50 50" fill="none" xmlns="http://www.w3.org/2000/svg">
<path d="M45.9729 36.9197C45.694 36.6229 45.4061 36.317 45.1002 36.0021C44.5714 36.4903 44.0093 36.9412 43.418 37.3515C42.825 37.7604 42.206 38.13 41.5648 38.4581C42.192 39.8411 42.904 41.1841 43.6969 42.4793C44.1037 43.0662 44.727 43.4675 45.4296 43.5949C46.1323 43.7223 46.8568 43.5653 47.4437 43.1585C48.0306 42.7517 48.4319 42.1284 48.5593 41.4257C48.6867 40.7231 48.5297 39.9986 48.1229 39.4116C47.4504 38.5439 46.7327 37.7121 45.9729 36.9197Z" fill="black"/>
<path d="M2.20712 33.0875L8.49536 43.3519L10.4925 35.0846L2.20712 33.0875Z" fill="black"/>
<path d="M22.907 31.9899C22.1677 30.9264 21.5831 29.7633 21.1708 28.5354L13.7131 26.7362C13.5904 26.7172 13.4731 26.673 13.3683 26.6064C13.2636 26.5398 13.1738 26.4523 13.1045 26.3493C13.0353 26.2463 12.9881 26.1301 12.9659 26.008C12.9438 25.8859 12.9471 25.7605 12.9757 25.6397C13.0044 25.519 13.0577 25.4054 13.1323 25.3063C13.2069 25.2071 13.3013 25.1245 13.4094 25.0636C13.5175 25.0026 13.6371 24.9647 13.7606 24.9522C13.884 24.9398 14.0088 24.9529 14.1269 24.991L20.667 26.5653C20.5133 25.7075 20.444 24.8368 20.4601 23.9655L8.98116 21.2037C8.85852 21.1846 8.74114 21.1404 8.63642 21.0738C8.53169 21.0072 8.44188 20.9197 8.37262 20.8167C8.30337 20.7137 8.25617 20.5975 8.234 20.4754C8.21184 20.3533 8.21517 20.2279 8.24381 20.1072C8.27244 19.9864 8.32575 19.8729 8.40038 19.7737C8.47502 19.6746 8.56936 19.5919 8.67748 19.531C8.78561 19.4701 8.90516 19.4322 9.02864 19.4197C9.15212 19.4072 9.27684 19.4204 9.39497 19.4584L20.604 22.1483C20.7117 21.3277 20.9016 20.52 21.1708 19.7373L17.5724 18.8737C17.4497 18.8547 17.3324 18.8105 17.2276 18.7439C17.1229 18.6773 17.0331 18.5897 16.9638 18.4867C16.8946 18.3837 16.8474 18.2675 16.8252 18.1454C16.8031 18.0233 16.8064 17.8979 16.835 17.7772C16.8637 17.6564 16.917 17.5429 16.9916 17.4437C17.0662 17.3446 17.1606 17.2619 17.2687 17.201C17.3768 17.1401 17.4964 17.1022 17.6199 17.0897C17.7433 17.0772 17.8681 17.0904 17.9862 17.1285L21.8635 18.0641C22.8858 15.9395 24.4457 14.1191 26.3885 12.7834C27.8768 11.7467 29.5557 11.0151 31.3282 10.6306C33.1008 10.2462 34.9319 10.2165 36.716 10.5434C37.8187 10.746 38.8937 11.0781 39.9185 11.5329L40.8361 7.69162L8.86421 0L1.39749 31.0453L11.7879 33.5462C11.9032 33.5722 12.0121 33.621 12.1082 33.6896C12.2044 33.7582 12.2859 33.8454 12.3479 33.946C12.4099 34.0465 12.4512 34.1585 12.4693 34.2752C12.4875 34.3919 12.4822 34.5111 12.4536 34.6258L9.95273 45.0162L30.6526 50L33.5673 37.9183C31.4545 37.815 29.3939 37.2264 27.5453 36.1983C25.6966 35.1702 24.1095 33.7302 22.907 31.9899ZM11.662 6.19827C11.7194 5.96694 11.8663 5.76785 12.0704 5.64472C12.2745 5.52159 12.5191 5.48449 12.7505 5.54156L18.3011 6.87298C18.5225 6.91728 18.7192 7.04328 18.8521 7.22594C18.985 7.40859 19.0442 7.63455 19.0182 7.8589C18.9921 8.08326 18.8826 8.28961 18.7114 8.43695C18.5402 8.58429 18.3199 8.66184 18.0941 8.65419C18.0213 8.65409 17.9488 8.64503 17.8782 8.6272L12.3277 7.28679C12.2123 7.25935 12.1035 7.20936 12.0076 7.13972C11.9116 7.07007 11.8303 6.98214 11.7685 6.88098C11.7066 6.77981 11.6653 6.66742 11.6471 6.55025C11.6288 6.43309 11.6339 6.31347 11.662 6.19827ZM10.7264 10.1026C10.7819 9.87151 10.9266 9.67183 11.1289 9.5471C11.3311 9.42238 11.5745 9.38274 11.8059 9.43685L20.802 11.6049C20.9229 11.6263 21.0382 11.6723 21.1407 11.74C21.2433 11.8077 21.3308 11.8957 21.398 11.9986C21.4652 12.1014 21.5107 12.2169 21.5315 12.338C21.5524 12.4591 21.5482 12.5831 21.5193 12.7025C21.4904 12.8219 21.4373 12.9341 21.3633 13.0322C21.2894 13.1303 21.1961 13.2122 21.0893 13.2729C20.9825 13.3336 20.8643 13.3718 20.7422 13.385C20.6201 13.3983 20.4965 13.3864 20.3791 13.3501L11.3831 11.1911C11.1518 11.1337 10.9527 10.9868 10.8295 10.7827C10.7064 10.5786 10.6693 10.334 10.7264 10.1026ZM9.31401 15.968C9.34146 15.8526 9.39144 15.7438 9.46109 15.6478C9.53073 15.5519 9.61866 15.4706 9.71983 15.4087C9.82099 15.3469 9.93338 15.3056 10.0505 15.2873C10.1677 15.2691 10.2873 15.2741 10.4025 15.3023L14.4328 16.2738C14.6455 16.3271 14.8314 16.4563 14.9555 16.637C15.0797 16.8177 15.1336 17.0376 15.1071 17.2553C15.0806 17.4729 14.9755 17.6734 14.8115 17.819C14.6476 17.9646 14.4361 18.0454 14.2169 18.0461C14.1471 18.0454 14.0776 18.0363 14.0099 18.0191L9.97972 17.0475C9.74867 16.992 9.54899 16.8473 9.42426 16.645C9.29954 16.4427 9.2599 16.1994 9.31401 15.968ZM7.30789 24.2713C7.36792 24.0411 7.51487 23.843 7.71787 23.7189C7.92087 23.5948 8.16409 23.5541 8.39641 23.6056L10.7894 24.1904C10.9046 24.2163 11.0135 24.2651 11.1097 24.3337C11.2058 24.4024 11.2873 24.4895 11.3493 24.5901C11.4113 24.6906 11.4526 24.8026 11.4708 24.9193C11.4889 25.036 11.4836 25.1552 11.4551 25.2699C11.4086 25.4666 11.2972 25.6419 11.1389 25.7676C10.9806 25.8932 10.7846 25.9619 10.5825 25.9626C10.5096 25.9625 10.4371 25.9534 10.3665 25.9356L7.9736 25.3598C7.74273 25.3008 7.544 25.1541 7.41968 24.9508C7.29535 24.7475 7.25525 24.5037 7.30789 24.2713ZM20.8469 43.226C20.7934 43.4166 20.6794 43.5847 20.5219 43.7048C20.3645 43.8248 20.1723 43.8905 19.9743 43.8917C19.8956 43.8911 19.8172 43.882 19.7404 43.8647L19.1557 43.7028C18.9382 43.6308 18.7564 43.4786 18.6473 43.2772C18.5382 43.0758 18.5101 42.8403 18.5686 42.6189C18.6271 42.3974 18.7679 42.2067 18.9622 42.0854C19.1566 41.9642 19.3899 41.9217 19.6145 41.9665L20.2082 42.1195C20.4385 42.1833 20.6345 42.3351 20.754 42.542C20.8734 42.749 20.9068 42.9946 20.8469 43.226ZM21.9894 32.2058C21.9429 32.4025 21.8316 32.5779 21.6733 32.7035C21.515 32.8292 21.3189 32.8979 21.1168 32.8985C21.0469 32.899 20.9773 32.8899 20.9099 32.8715L6.97504 29.516C6.85407 29.4946 6.73877 29.4486 6.63626 29.3809C6.53374 29.3132 6.44618 29.2252 6.37897 29.1224C6.31176 29.0195 6.26633 28.904 6.24547 28.7829C6.22462 28.6619 6.22878 28.5378 6.25771 28.4184C6.28663 28.299 6.33971 28.1868 6.41366 28.0887C6.48762 27.9906 6.58088 27.9087 6.68771 27.848C6.79453 27.7873 6.91265 27.7492 7.03479 27.7359C7.15692 27.7226 7.28048 27.7345 7.39785 27.7708L21.3237 31.1263C21.5548 31.1818 21.7545 31.3265 21.8792 31.5288C22.0039 31.7311 22.0435 31.9744 21.9894 32.2058ZM24.4993 44.1976C24.4477 44.3892 24.3341 44.5585 24.1763 44.6789C24.0185 44.7993 23.8252 44.8641 23.6267 44.8633C23.5509 44.8632 23.4754 44.8541 23.4018 44.8363L22.8081 44.6743C22.5781 44.6131 22.3817 44.4632 22.262 44.2575C22.1423 44.0518 22.109 43.807 22.1694 43.5768C22.2332 43.3465 22.385 43.1506 22.5919 43.0311C22.7989 42.9116 23.0445 42.8782 23.2759 42.9381L23.8606 43.091C24.0915 43.1539 24.2883 43.3054 24.4079 43.5127C24.5276 43.72 24.5604 43.9662 24.4993 44.1976ZM25.8307 44.5484C25.8604 44.4341 25.9124 44.3269 25.9838 44.2328C26.0551 44.1388 26.1444 44.0598 26.2464 44.0004C26.3485 43.941 26.4613 43.9024 26.5783 43.8869C26.6953 43.8713 26.8142 43.879 26.9283 43.9097L27.522 44.0626C27.7363 44.1162 27.9234 44.2467 28.0477 44.4294C28.1719 44.6121 28.2246 44.8341 28.1957 45.0531C28.1668 45.2721 28.0583 45.4728 27.8909 45.617C27.7236 45.7612 27.509 45.8387 27.2881 45.8348C27.2087 45.8354 27.1297 45.8233 27.0542 45.7988L26.4695 45.6459C26.2395 45.5847 26.0431 45.4348 25.9234 45.2291C25.8037 45.0234 25.7704 44.7786 25.8307 44.5484Z" fill="black"/>
<path d="M34.2331 15.1763C32.4186 15.1746 30.6474 15.7305 29.1593 16.7686C28.8991 16.9454 28.6497 17.1377 28.4126 17.3444L35.1417 18.9637C35.3537 19.0167 35.5391 19.1452 35.6633 19.3249C35.7876 19.5047 35.8421 19.7236 35.8168 19.9407C35.7914 20.1578 35.6879 20.3582 35.5256 20.5045C35.3633 20.6509 35.1533 20.7331 34.9347 20.7359C34.8649 20.7358 34.7954 20.7267 34.7278 20.7089L27.0092 18.8557C26.3351 19.7918 25.8465 20.8484 25.5699 21.9684V21.9773L33.6033 23.9025C33.8153 23.9556 34.0008 24.084 34.125 24.2638C34.2493 24.4436 34.3038 24.6624 34.2785 24.8795C34.2531 25.0966 34.1496 25.297 33.9873 25.4433C33.825 25.5897 33.615 25.6719 33.3964 25.6747C33.3266 25.6746 33.257 25.6655 33.1895 25.6477L25.309 23.7586C25.2582 24.8962 25.4293 26.0328 25.8128 27.1051L32.038 28.5984C32.25 28.6515 32.4355 28.7799 32.5597 28.9597C32.684 29.1395 32.7385 29.3584 32.7132 29.5754C32.6878 29.7925 32.5843 29.9929 32.422 30.1393C32.2597 30.2856 32.0496 30.3679 31.8311 30.3707C31.7612 30.3711 31.6916 30.3621 31.6242 30.3437L26.8833 29.2102C26.8923 29.2192 26.9013 29.2192 26.9013 29.2282C27.7218 30.4163 28.8185 31.3874 30.0971 32.0581C31.3758 32.7287 32.7982 33.0789 34.2421 33.0785C35.2479 33.0793 36.2462 32.9058 37.1928 32.5657L40.7102 17.9381C39.4114 16.5699 37.7093 15.6527 35.8523 15.3203C35.318 15.2237 34.776 15.1755 34.2331 15.1763Z" fill="black"/>
<path d="M43.8318 34.7337C43.7059 34.6168 43.5889 34.4998 43.472 34.3829C43.0942 34.032 42.7253 33.6812 42.3475 33.3483C42.5544 33.1594 42.7613 32.9615 42.9592 32.7636C43.1841 32.5387 43.4 32.3048 43.6069 32.0619C45.3596 30.0043 46.3824 27.4248 46.5158 24.7252C46.6492 22.0257 45.8858 19.3578 44.3446 17.1374C43.9069 16.4934 43.4001 15.8991 42.8333 15.3652C42.8051 15.3251 42.7718 15.2888 42.7343 15.2573C42.2529 14.7906 41.7322 14.3662 41.178 13.9888C40.6644 13.6287 40.1194 13.3156 39.5497 13.0532C38.5641 12.5743 37.5164 12.2352 36.4371 12.0457C34.8521 11.7549 33.2252 11.7809 31.6503 12.1221C30.0754 12.4633 28.5836 13.1131 27.2611 14.0338C26.1507 14.8046 25.1776 15.7565 24.3824 16.8496C24.3467 16.8893 24.3136 16.9314 24.2834 16.9755C23.9448 17.4331 23.6439 17.9175 23.3838 18.4239C23.1036 18.9634 22.863 19.5226 22.6641 20.0971C22.4415 20.7226 22.2758 21.367 22.1694 22.0223C22.1622 22.0329 22.159 22.0456 22.1604 22.0583C22.1514 22.0673 22.1514 22.0673 22.1514 22.0763C22.1341 22.1439 22.1251 22.2134 22.1244 22.2832V22.2922C22.1066 22.3628 22.0975 22.4353 22.0974 22.5081C22.0092 23.1096 21.9701 23.7174 21.9804 24.3253C21.9939 25.2129 22.1025 26.0966 22.3043 26.9611C22.3583 27.168 22.4123 27.3839 22.4752 27.5908C22.4874 27.6397 22.5024 27.6877 22.5202 27.7348C22.6417 28.1543 22.7889 28.5659 22.961 28.9672C23.289 29.724 23.6897 30.4471 24.1575 31.1263C25.256 32.712 26.7134 34.0159 28.4111 34.932C30.1088 35.848 31.9987 36.3503 33.9272 36.398C34.0351 36.407 34.1341 36.407 34.2421 36.407C34.7627 36.4068 35.2827 36.3708 35.7984 36.299C36.4358 36.2243 37.0651 36.0918 37.6785 35.9032C37.7274 35.891 37.7754 35.876 37.8225 35.8582C38.0177 35.8093 38.2099 35.7492 38.3982 35.6783C38.6951 35.5703 38.992 35.4534 39.2798 35.3184C39.5407 35.2015 39.8016 35.0756 40.0445 34.9406C40.2244 35.4084 40.4223 35.8852 40.6292 36.362C40.6845 36.515 40.7476 36.6652 40.8182 36.8118C41.3654 36.5394 41.8916 36.2267 42.3925 35.8762C42.8967 35.5272 43.3775 35.1455 43.8318 34.7337ZM40.2154 32.7366C39.7666 33.0457 39.2944 33.3195 38.803 33.5552H38.794C38.7131 33.5912 38.6321 33.6362 38.5512 33.6722H38.5422C37.9748 33.9306 37.3845 34.1354 36.7789 34.2839C36.247 34.4197 35.7058 34.516 35.1596 34.5718H35.1147C35.0427 34.5718 34.9707 34.5808 34.8898 34.5808C33.0928 34.6954 31.2967 34.343 29.6761 33.558C28.0556 32.7729 26.6658 31.5819 25.6418 30.1007C24.9244 29.0682 24.4029 27.9124 24.1035 26.6912C23.8219 25.6149 23.7216 24.4991 23.8066 23.3897C23.8505 22.7923 23.9437 22.1995 24.0855 21.6175C24.3597 20.5039 24.8157 19.4431 25.4349 18.4779C25.7879 17.9234 26.1947 17.4051 26.6494 16.9305C27.8424 15.6614 29.3345 14.7115 30.9894 14.1677C32.6442 13.624 34.4089 13.5037 36.1222 13.8179C37.3521 14.0335 38.5321 14.4725 39.6037 15.1133C39.6686 15.149 39.7317 15.1881 39.7926 15.2303H39.8016C39.8466 15.2573 39.8826 15.2843 39.9276 15.3113C40.3512 15.5799 40.7515 15.8839 41.124 16.2199C41.6652 16.6895 42.1593 17.2107 42.5994 17.7762V17.7852L42.8693 18.163C44.2655 20.1736 44.9115 22.6106 44.6945 25.0489C44.4775 27.4871 43.4112 29.7717 41.6818 31.5041C41.231 31.9582 40.7403 32.3707 40.2154 32.7366Z" fill="black"/>
</svg>
