<svg width="50" height="50" viewBox="0 0 50 50" fill="none" xmlns="http://www.w3.org/2000/svg">
<path fill-rule="evenodd" clip-rule="evenodd" d="M36.5934 39.8266H32.3913L31.7808 38.8753L30.1336 36.3101H40.4804C41.048 36.3085 41.5919 36.0822 41.9933 35.6807C42.3948 35.2792 42.6211 34.7351 42.6228 34.1672V25.3514L39.5214 23.0678C39.2935 22.8993 39.1076 22.6804 38.9781 22.4282C38.8486 22.1761 38.7789 21.8975 38.7744 21.614L37.8602 20.9934C36.0951 22.4541 33.8487 23.2031 31.5606 23.0937C29.2726 22.9843 27.1077 22.0245 25.4899 20.4022C25.0039 20.3225 24.5424 20.1332 24.1404 19.8485C23.7384 19.5638 23.4065 19.1912 23.1699 18.7591C22.9333 18.327 22.7982 17.8466 22.7748 17.3544C22.7514 16.8623 22.8404 16.3712 23.035 15.9186C22.9922 15.7265 22.9557 15.5339 22.9253 15.3392L18.381 11.3598C17.898 11.7145 17.3262 11.9284 16.7291 11.9778C16.132 12.0272 15.5329 11.9101 14.9982 11.6395C14.4636 11.369 14.0143 10.9556 13.7002 10.4451C13.3861 9.93464 13.2195 9.3471 13.2189 8.74768C13.2189 8.70647 13.2189 8.66579 13.2189 8.62459H9.14194C8.57427 8.62622 8.03033 8.85259 7.62898 9.25422C7.22762 9.65586 7.00149 10.2001 7 10.768V34.1672C7.00163 34.735 7.22782 35.2791 7.62916 35.6807C8.0305 36.0822 8.57436 36.3085 9.14194 36.3101H19.4923L17.8477 38.8753L17.2377 39.8266H13.0351C12.9105 39.8267 12.7909 39.8763 12.7028 39.9644C12.6146 40.0525 12.5649 40.172 12.5646 40.2967V42.5293C12.5649 42.654 12.6145 42.7736 12.7027 42.8618C12.7909 42.95 12.9104 42.9997 13.0351 43H36.5934C36.7181 42.9997 36.8376 42.95 36.9258 42.8618C37.0139 42.7736 37.0636 42.654 37.0639 42.5293V40.2967C37.0636 40.172 37.0139 40.0525 36.9257 39.9644C36.8375 39.8763 36.718 39.8267 36.5934 39.8266ZM16.4604 6.7747C16.8502 6.7748 17.2312 6.89054 17.5553 7.10728C17.8793 7.32402 18.1319 7.63204 18.281 7.99237C18.4301 8.35271 18.4691 8.74918 18.393 9.13167C18.3168 9.51415 18.1291 9.86547 17.8534 10.1412C17.5777 10.4169 17.2265 10.6047 16.8442 10.6807C16.4619 10.7568 16.0656 10.7177 15.7054 10.5684C15.3453 10.4192 15.0375 10.1664 14.821 9.84215C14.6044 9.51787 14.4888 9.13664 14.4888 8.74665C14.4888 8.48764 14.5398 8.23118 14.6389 7.9919C14.738 7.75261 14.8832 7.53521 15.0663 7.35209C15.2494 7.16897 15.4667 7.02373 15.7059 6.92466C15.9451 6.82559 16.2015 6.77463 16.4604 6.7747ZM26.0124 15.228C26.4696 15.2272 26.9128 15.3862 27.2653 15.6776L31.1405 13.6175C31.1237 13.5128 31.1152 13.4069 31.1152 13.3008C31.1155 13.0301 31.1715 12.7623 31.2797 12.5142C31.388 12.266 31.5461 12.0429 31.7443 11.8585C31.9425 11.6742 32.1765 11.5327 32.4318 11.4428C32.687 11.3529 32.958 11.3165 33.2279 11.336C33.4978 11.3554 33.7609 11.4303 34.0006 11.5559C34.2403 11.6815 34.4516 11.8551 34.6214 12.0659C34.7911 12.2768 34.9156 12.5203 34.9872 12.7814C35.0587 13.0425 35.0758 13.3156 35.0372 13.5836L37.5457 14.8675C37.5996 14.5489 37.6265 14.2264 37.626 13.9034C37.6085 12.4193 37.006 11.0021 35.9495 9.96021C34.893 8.91828 33.468 8.33587 31.9846 8.33967C30.5011 8.34348 29.0791 8.93318 28.0279 9.98051C26.9768 11.0278 26.3815 12.4481 26.3717 13.9322C26.3717 13.9482 26.3717 13.9647 26.3717 13.9796C26.252 13.9664 26.1317 13.9597 26.0113 13.9595C25.3283 13.9591 24.6626 14.1754 24.1103 14.5775C24.0071 13.3405 24.196 12.0965 24.6618 10.9459C25.1276 9.7954 25.8572 8.77053 26.7918 7.95404C27.7264 7.13755 28.8397 6.55232 30.042 6.24558C31.2443 5.93883 32.5018 5.91917 33.7131 6.18817C34.9244 6.45717 36.0555 7.0073 37.0151 7.79417C37.9748 8.58103 38.7361 9.58259 39.2376 10.718C39.7391 11.8534 39.9668 13.0909 39.9022 14.3306C39.8377 15.5702 39.4828 16.7773 38.8661 17.8545L41.3853 19.5643L41.4116 19.5287C41.5023 19.4061 41.6378 19.3244 41.7886 19.3014C41.9394 19.2784 42.0931 19.3161 42.2162 19.4062L48.766 24.2271C48.8887 24.3181 48.9705 24.454 48.9934 24.6051C49.0164 24.7562 48.9787 24.9102 48.8886 25.0336L47.631 26.7429C47.5404 26.8658 47.4047 26.9477 47.2538 26.9707C47.1028 26.9937 46.949 26.9559 46.8259 26.8655L40.2776 22.044C40.1549 21.9532 40.0732 21.8175 40.0503 21.6666C40.0273 21.5156 40.065 21.3618 40.155 21.2386L40.2652 21.0892L37.7356 19.3722C36.4074 20.7696 34.6152 21.6341 32.6952 21.8036C30.7752 21.9732 28.8593 21.436 27.307 20.293C27.273 20.2683 27.239 20.2415 27.204 20.2163C27.9543 19.9186 28.5669 19.352 28.9223 18.627C29.6122 19.0774 30.3925 19.3709 31.2081 19.4867C32.0237 19.6025 32.8548 19.5378 33.6426 19.2971C34.4305 19.0565 35.156 18.6457 35.7679 18.0939C36.3798 17.5421 36.8631 16.8626 37.1838 16.1035L34.4607 14.713C34.0974 15.0668 33.6118 15.2669 33.1048 15.2717C32.5978 15.2765 32.1085 15.0856 31.7386 14.7387L27.934 16.7555C28.0263 17.1541 27.9923 17.5716 27.8368 17.9501C27.6814 18.3286 27.4121 18.6494 27.0663 18.8679C26.7205 19.0865 26.3153 19.1921 25.9069 19.17C25.4985 19.1479 25.107 18.9993 24.7868 18.7448C24.4665 18.4902 24.2334 18.1423 24.1195 17.7492C24.0057 17.3562 24.0169 16.9374 24.1516 16.551C24.2863 16.1646 24.5377 15.8297 24.8711 15.5927C25.2045 15.3556 25.6033 15.2281 26.0124 15.228ZM19.235 10.423C19.5411 9.91735 19.7026 9.33731 19.7018 8.74613C19.7018 8.70493 19.7018 8.66424 19.6988 8.62304H24.4897C23.4655 10.0727 22.8854 11.7894 22.8203 13.5635L19.235 10.4219V10.423ZM42.6264 18.182C42.2574 18.0189 41.8452 17.9811 41.4528 18.0744L40.4907 17.4214C41.0759 15.9896 41.2923 14.4338 41.1201 12.8966C40.9479 11.3594 40.3925 9.8901 39.5049 8.62356H40.4829C41.0507 8.62519 41.5947 8.85154 41.9961 9.25316C42.3975 9.65478 42.6238 10.199 42.6254 10.767V18.183L42.6264 18.182ZM30.7081 26.6517H34.2548V32.9441H30.7081V26.6517ZM34.89 25.3812C35.0584 25.3814 35.2198 25.4484 35.3389 25.5676C35.4579 25.6867 35.5247 25.8483 35.5247 26.0168V33.577C35.5246 33.7454 35.4577 33.9068 35.3387 34.0259C35.2197 34.1449 35.0583 34.2119 34.89 34.212H30.0728C29.9045 34.2119 29.7432 34.1449 29.6242 34.0259C29.5052 33.9068 29.4383 33.7454 29.4381 33.577V26.0168C29.4381 25.8483 29.505 25.6867 29.624 25.5676C29.743 25.4484 29.9045 25.3814 30.0728 25.3812H34.89ZM23.0411 23.3928H26.5879V32.9441H23.0411V23.3928ZM27.2226 22.1233C27.3059 22.1233 27.3885 22.1396 27.4655 22.1715C27.5425 22.2033 27.6125 22.25 27.6715 22.309C27.7305 22.3679 27.7773 22.4378 27.8093 22.5148C27.8412 22.5919 27.8577 22.6744 27.8578 22.7578V33.577C27.8577 33.7455 27.7907 33.907 27.6716 34.026C27.5525 34.1451 27.391 34.212 27.2226 34.212H22.4059C22.2379 34.2114 22.0769 34.1443 21.9583 34.0253C21.8396 33.9063 21.7729 33.7451 21.7727 33.577V22.7578C21.7728 22.6744 21.7893 22.5919 21.8213 22.5148C21.8532 22.4378 21.9 22.3679 21.959 22.309C22.018 22.25 22.088 22.2033 22.165 22.1715C22.2421 22.1396 22.3246 22.1233 22.408 22.1233H27.2226ZM15.3737 19.5025H18.9204V32.9441H15.3737V19.5025ZM19.5557 18.2325C19.639 18.2324 19.7216 18.2488 19.7987 18.2807C19.8758 18.3126 19.9458 18.3593 20.0048 18.4183C20.0638 18.4773 20.1106 18.5473 20.1425 18.6244C20.1744 18.7014 20.1909 18.784 20.1909 18.8675V33.577C20.1907 33.7455 20.1238 33.907 20.0046 34.026C19.8855 34.1451 19.724 34.212 19.5557 34.212H14.7385C14.6551 34.2121 14.5724 34.1957 14.4953 34.1638C14.4183 34.1319 14.3482 34.0852 14.2892 34.0262C14.2301 33.9673 14.1833 33.8972 14.1513 33.8202C14.1193 33.7431 14.1028 33.6604 14.1027 33.577V18.8649C14.1027 18.7815 14.119 18.6989 14.1509 18.6218C14.1828 18.5448 14.2295 18.4747 14.2885 18.4157C14.3474 18.3568 14.4174 18.31 14.4945 18.2781C14.5715 18.2462 14.6541 18.2298 14.7374 18.2299L19.5557 18.2325Z" fill="black"/>
</svg>
