<svg width="50" height="50" viewBox="0 0 50 50" fill="none" xmlns="http://www.w3.org/2000/svg">
<path d="M42.4944 8.93701C42.4981 8.97434 42.5 9.01191 42.5 9.0498V48.8687C42.5 49.4933 41.9924 50 41.3665 50H7.13354C6.50749 50 6 49.4933 6 48.8687V1.13135C6 0.506688 6.50749 0 7.13354 0H33.4316C33.4696 0 33.5074 0.00175109 33.545 0.00537109C33.5725 0.00808609 33.5994 0.0129431 33.6262 0.0175781C33.6357 0.0192781 33.6455 0.0200477 33.655 0.0219727C33.6874 0.0284177 33.7191 0.0367384 33.7505 0.0458984C33.7543 0.0470284 33.7582 0.0476981 33.7621 0.0488281C33.7939 0.0585581 33.8251 0.0701895 33.8557 0.0825195C33.8591 0.0839895 33.8628 0.0849558 33.8663 0.0864258C33.8952 0.0984208 33.9231 0.111727 33.9507 0.125977C33.9559 0.128692 33.9615 0.131074 33.9667 0.133789C33.9915 0.147024 34.0153 0.161713 34.0389 0.176758C34.0465 0.181618 34.0545 0.185938 34.0621 0.190918C34.0832 0.205058 34.1033 0.220833 34.1234 0.236328C34.1326 0.243458 34.1423 0.249969 34.1514 0.257324C34.1721 0.274404 34.1914 0.292595 34.2109 0.311035C34.2182 0.31782 34.226 0.32393 34.2332 0.331055L42.168 8.25C42.175 8.25713 42.1812 8.26473 42.1881 8.27197C42.2066 8.29143 42.225 8.31084 42.2421 8.33154C42.2495 8.34059 42.2559 8.3501 42.2631 8.35938C42.2786 8.3794 42.2943 8.39926 42.3085 8.42041C42.3136 8.42799 42.3178 8.43616 42.3226 8.44385C42.3377 8.46749 42.3526 8.49134 42.3658 8.51611C42.3687 8.52132 42.3708 8.52653 42.3735 8.53174C42.3878 8.55934 42.4014 8.58737 42.4135 8.61621C42.4149 8.61961 42.4159 8.62296 42.4172 8.62646C42.4296 8.65701 42.4411 8.68843 42.4508 8.72021C42.4519 8.72406 42.4526 8.7276 42.4537 8.73145C42.4629 8.76278 42.4713 8.7948 42.4778 8.82715C42.4797 8.83665 42.4805 8.84645 42.4822 8.85596C42.4868 8.88288 42.4917 8.90952 42.4944 8.93701ZM34.5652 3.8623V7.91846H38.6298L34.5652 3.8623ZM8.26709 47.7378H40.2329V10.1812H33.4316C32.8057 10.1812 32.2981 9.67446 32.2981 9.0498V2.26221H8.26709V47.7378ZM33.7577 29.5205H13.7167C13.0009 29.5205 12.4385 28.9594 12.4385 28.2451C12.4385 27.5308 13.0009 27.0205 13.7167 27.0205H33.7577C34.4734 27.0205 34.9846 27.5308 34.9846 28.2451C34.9846 28.9594 34.4734 29.5205 33.7577 29.5205ZM33.7577 40.0205H13.7167C13.0009 40.0205 12.4385 39.4594 12.4385 38.7451C12.4385 38.0308 13.0009 37.5205 13.7167 37.5205H33.7577C34.4734 37.5205 34.9846 38.0308 34.9846 38.7451C34.9846 39.4594 34.4734 40.0205 33.7577 40.0205ZM23.7577 44.5205H13.7167C13.0009 44.5205 12.4385 43.9594 12.4385 43.2451C12.4385 42.5308 13.0009 42.0205 13.7167 42.0205H23.7577C24.4734 42.0205 24.9846 42.5308 24.9846 43.2451C24.9846 43.9594 24.4734 44.5205 23.7577 44.5205ZM33.7577 34.4897H13.7167C13.0009 34.4897 12.4385 33.9794 12.4385 33.2651C12.4385 32.5509 13.0009 31.9897 13.7167 31.9897H33.7577C34.4734 31.9897 34.9846 32.5509 34.9846 33.2651C34.9846 33.9794 34.4734 34.4897 33.7577 34.4897ZM21.3893 22.7817H21.8591C22.2224 22.7817 22.5168 23.0762 22.5168 23.4395C22.5168 23.8027 22.2224 24.0972 21.8591 24.0972H15.6577C15.2945 24.0972 15 23.8027 15 23.4395C15 23.0762 15.2945 22.7817 15.6577 22.7817H16.1276C16.1276 22.0552 16.7165 21.4663 17.443 21.4663H20.0739C20.8004 21.4663 21.3893 22.0552 21.3893 22.7817ZM25.1647 17.1323L23.8638 15.5259C23.8435 15.5009 23.8263 15.4743 23.812 15.4468L22.1982 16.7534L22.3756 16.9727C22.7348 17.4163 22.6665 18.067 22.2229 18.4263C21.7793 18.7855 21.1284 18.717 20.7692 18.2734L18.0492 14.9146C17.69 14.4709 17.7583 13.8202 18.2019 13.4609C18.6455 13.1017 19.2964 13.1702 19.6556 13.6138L19.833 13.8325L24.0682 10.4033L23.8909 10.1841C23.5316 9.74047 23.6 9.0897 24.0436 8.73047C24.4872 8.37124 25.1381 8.43969 25.4973 8.8833L28.2173 12.2422C28.5765 12.6858 28.5081 13.3366 28.0645 13.6958C27.6208 14.055 26.9701 13.9866 26.6108 13.543L26.4335 13.3237L24.9657 14.5122C24.9896 14.5319 25.0119 14.5546 25.0321 14.5796L26.333 16.186C26.3398 16.1944 26.3463 16.2027 26.3524 16.2114C26.831 16.0953 27.3554 16.254 27.6859 16.6621L31.7068 21.6274C32.164 22.192 32.0769 23.0203 31.5123 23.4775L31.2202 23.7144C30.6556 24.1716 29.8273 24.0846 29.3701 23.52L25.3492 18.5542C25.0187 18.1461 24.9727 17.6002 25.1858 17.1562C25.1786 17.1485 25.1715 17.1407 25.1647 17.1323Z" fill="white"/>
</svg>
