<svg width="228" height="36" viewBox="0 0 228 36" fill="none" xmlns="http://www.w3.org/2000/svg">
<path d="M37 13.9431H39.2246C40.7253 13.9431 41.9143 14.3253 42.7919 15.0898C43.7396 15.9085 44.2135 17.1027 44.2135 18.6723C44.2135 20.2418 43.7528 21.4337 42.8314 22.2479C41.9713 23.0033 40.791 23.381 39.2904 23.381H37V13.9431ZM42.8643 18.679C42.8643 16.25 41.6225 15.0355 39.1391 15.0355H38.3163V22.2953H39.2115C41.107 22.2953 42.2609 21.5897 42.6734 20.1785C42.8007 19.7307 42.8643 19.2309 42.8643 18.679ZM45.5562 19.8664C45.5562 18.7673 45.8962 17.8762 46.5763 17.1931C47.2125 16.5553 48.0002 16.2365 48.9391 16.2365C49.8606 16.2365 50.6306 16.5553 51.2492 17.1931C51.9074 17.8716 52.2365 18.7627 52.2365 19.8664C52.2365 20.9655 51.9053 21.8521 51.2427 22.5261C50.6152 23.1684 49.8452 23.4896 48.9326 23.4896C48.0067 23.4896 47.2213 23.1684 46.5763 22.5261C45.8962 21.8521 45.5562 20.9655 45.5562 19.8664ZM46.9251 19.8664C46.9251 21.0244 47.2849 21.8114 48.0045 22.2276C48.259 22.3723 48.564 22.4446 48.9194 22.4446C49.2748 22.4446 49.5753 22.3723 49.821 22.2276C50.0667 22.0783 50.2686 21.8837 50.4265 21.644C50.7206 21.1827 50.8676 20.5902 50.8676 19.8664C50.8676 18.7174 50.5143 17.9304 49.8079 17.5052C49.5622 17.356 49.2682 17.2813 48.926 17.2813C48.5837 17.2813 48.2854 17.356 48.0309 17.5052C47.7808 17.65 47.5745 17.8422 47.4122 18.0819C47.0874 18.5524 46.9251 19.1472 46.9251 19.8664ZM58.7326 23.3606C58.4694 23.4466 58.013 23.4896 57.3636 23.4896C56.7142 23.4896 56.1614 23.4081 55.7051 23.2453C55.2531 23.0824 54.867 22.8427 54.5466 22.5261C53.8841 21.8702 53.5528 20.961 53.5528 19.7985C53.5528 18.6723 53.95 17.7856 54.7441 17.1388C55.4549 16.5598 56.3281 16.2703 57.3636 16.2703C58.0042 16.2703 58.443 16.293 58.6799 16.3382V17.5459C58.3114 17.4238 57.8902 17.3627 57.4163 17.3627C56.9468 17.3627 56.5563 17.4306 56.2447 17.5663C55.9332 17.6975 55.6787 17.8762 55.4812 18.1023C55.1083 18.532 54.9218 19.0974 54.9218 19.7985C54.9218 20.9836 55.3365 21.773 56.1658 22.1665C56.4597 22.3067 56.7471 22.3768 57.028 22.3768C57.3088 22.3768 57.5238 22.37 57.6729 22.3565C57.8265 22.3429 57.9713 22.3248 58.1074 22.3022C58.397 22.2525 58.6053 22.2004 58.7326 22.1462V23.3606ZM65.0115 21.6644V16.3789H66.3278V23.381H65.1431L65.0247 22.6414C64.3753 23.2068 63.6579 23.4896 62.8725 23.4896C62.0388 23.4896 61.4487 23.2521 61.102 22.7771C60.7422 22.2932 60.5623 21.4586 60.5623 20.2734V16.3789H61.8786V20.2056C61.8786 21.0425 61.9949 21.6124 62.2275 21.9154C62.4337 22.1869 62.8264 22.3225 63.4056 22.3225C63.9891 22.3225 64.5244 22.1032 65.0115 21.6644ZM69.7963 18.1226L69.8029 23.381H68.4866V16.3789H69.6976L69.7898 17.1456C70.2724 16.7295 70.834 16.4581 71.4747 16.3315C71.6809 16.2907 71.8827 16.2703 72.0802 16.2703C72.9007 16.2703 73.5194 16.6277 73.9362 17.3424C74.6997 16.6277 75.4982 16.2703 76.3319 16.2703C77.1568 16.2703 77.7579 16.5259 78.1352 17.0371C78.5126 17.5573 78.7013 18.4167 78.7013 19.6154V23.381H77.3849V19.6628C77.3849 18.4868 77.1107 17.7835 76.5623 17.5527C76.3779 17.4759 76.1629 17.4374 75.9172 17.4374C75.3293 17.4374 74.7896 17.6545 74.2982 18.0888V23.381H72.9818V19.6085C72.9818 18.8034 72.8655 18.238 72.633 17.9123C72.4093 17.5957 72.0078 17.4374 71.4286 17.4374C70.8538 17.4374 70.3097 17.6658 69.7963 18.1226ZM83.9864 23.4896C81.5029 23.4896 80.2612 22.2389 80.2612 19.7375C80.2612 18.661 80.6056 17.7992 81.2945 17.1524C81.9132 16.5644 82.6196 16.2703 83.4138 16.2703C84.2782 16.2703 84.9539 16.5689 85.4409 17.166C85.8928 17.7223 86.1188 18.4664 86.1188 19.3982V19.9274H81.6301C81.6301 21.2075 82.1369 21.99 83.1505 22.275C83.3918 22.3429 83.7626 22.3768 84.2628 22.3768C84.7674 22.3768 85.261 22.3067 85.7437 22.1665V23.3131C85.261 23.4307 84.6752 23.4896 83.9864 23.4896ZM84.8024 18.93C84.8024 18.4958 84.6862 18.1294 84.4536 17.8309C84.1816 17.4871 83.8064 17.3153 83.3282 17.3153C82.8236 17.3153 82.4133 17.4803 82.0974 17.8105C81.8078 18.1181 81.663 18.4913 81.663 18.93H84.8024ZM90.6273 17.4374C89.9734 17.4374 89.3921 17.6658 88.8831 18.1226V23.381H87.5667V16.3789H88.7844L88.8765 17.1388C89.5917 16.5598 90.331 16.2703 91.0945 16.2703C91.9018 16.2703 92.4942 16.5192 92.8716 17.0167C93.2665 17.5414 93.4639 18.3873 93.4639 19.5542V23.381H92.1476V19.5542C92.1476 18.4325 91.8536 17.763 91.2656 17.5459C91.077 17.4736 90.8641 17.4374 90.6273 17.4374ZM97.8802 22.3089C98.0249 22.3632 98.2444 22.3904 98.5384 22.3904C98.8323 22.3904 99.0781 22.3542 99.2755 22.2818V23.3674C99.1834 23.39 99.0495 23.4036 98.874 23.4081L98.4594 23.4217C98.3672 23.4217 98.297 23.4217 98.2488 23.4217C97.4019 23.4217 96.7767 23.1367 96.373 22.5668C96.0483 22.1054 95.886 21.4948 95.886 20.7349V17.417H94.9118V16.7792L95.886 16.3789L96.2019 14.642H97.2023V16.3789H99.3084V17.417H97.2023V20.728C97.2023 21.6147 97.4283 22.1416 97.8802 22.3089ZM107.687 24.5344C106.41 23.4579 105.637 22.0783 105.37 20.3956C105.287 19.8709 105.245 19.3281 105.245 18.7673C105.245 16.9534 105.675 15.4426 106.535 14.2349C106.847 13.8007 107.231 13.389 107.687 13H109.056C107.823 13.9907 107.022 15.325 106.653 17.0031C106.531 17.564 106.469 18.1543 106.469 18.774C106.469 19.3892 106.531 19.9772 106.653 20.538C106.776 21.0945 106.95 21.6169 107.174 22.1054C107.617 23.0734 108.244 23.8831 109.056 24.5344H107.687ZM113.07 13.9364H113.972L117.836 23.381H116.467L115.539 21.0062H111.471L110.55 23.381H109.207L113.07 13.9364ZM115.117 19.9207L113.512 15.7819L111.899 19.9207H115.117ZM119.047 13.9364H120.363V23.381H119.047V13.9364ZM131.65 22.6007C131.273 22.9038 130.845 23.1277 130.367 23.2724C129.893 23.4126 129.38 23.4827 128.827 23.4827C128.279 23.4827 127.664 23.4489 126.985 23.381V13.285H128.301V17.0778C128.59 16.7385 128.992 16.4965 129.505 16.3518C129.698 16.2975 129.895 16.2703 130.097 16.2703C130.303 16.2703 130.512 16.293 130.722 16.3382C130.933 16.3789 131.142 16.4513 131.348 16.5553C131.559 16.6594 131.758 16.7974 131.947 16.9692C132.135 17.1411 132.302 17.356 132.447 17.6138C132.767 18.1656 132.928 18.8214 132.928 19.5814C132.928 20.3368 132.808 20.9519 132.572 21.4269C132.34 21.9019 132.032 22.2932 131.65 22.6007ZM128.307 22.3836C128.43 22.4198 128.671 22.4379 129.031 22.4379C129.391 22.4379 129.728 22.3859 130.044 22.2818C130.361 22.1778 130.631 22.015 130.854 21.7933C131.324 21.3274 131.559 20.633 131.559 19.7104C131.559 18.584 131.24 17.8468 130.604 17.4984C130.375 17.3763 130.143 17.3153 129.907 17.3153C129.67 17.3153 129.464 17.3469 129.288 17.4103C129.112 17.4736 128.958 17.5505 128.827 17.6409C128.577 17.8173 128.404 18.0073 128.307 18.2108V22.3836ZM135.047 22.1326C134.902 21.8747 134.786 21.5717 134.697 21.2234C134.615 20.8751 134.573 20.4205 134.573 19.8595C134.573 19.2987 134.689 18.783 134.922 18.3127C135.159 17.8376 135.466 17.4487 135.843 17.1456C136.576 16.5621 137.487 16.2703 138.575 16.2703C139.141 16.2703 139.568 16.2839 139.858 16.3111C139.858 16.3111 140.071 16.3336 140.496 16.3789V23.381H139.311L139.259 22.5736C138.995 22.9354 138.594 23.2046 138.055 23.381C137.849 23.4489 137.635 23.4827 137.416 23.4827C137.201 23.4827 136.988 23.4602 136.778 23.4149C136.567 23.3697 136.356 23.295 136.146 23.191C135.94 23.087 135.742 22.949 135.553 22.7771C135.365 22.6007 135.196 22.3859 135.047 22.1326ZM139.18 17.3763C138.899 17.3401 138.618 17.322 138.338 17.322C138.062 17.322 137.765 17.374 137.449 17.478C137.133 17.5776 136.863 17.7359 136.639 17.953C136.174 18.4054 135.941 19.0952 135.941 20.0224C135.941 20.8999 136.142 21.5491 136.54 21.9697C136.844 22.2818 137.208 22.4379 137.633 22.4379C138.182 22.4379 138.633 22.232 138.989 21.8204C139.077 21.7164 139.141 21.6237 139.18 21.5423V17.3763ZM144.268 23.4896C143.719 23.4896 143.164 23.4489 142.602 23.3674V22.1665C143.173 22.3067 143.752 22.3768 144.34 22.3768C145.516 22.3768 146.104 22.1213 146.104 21.6101C146.104 21.4157 146.058 21.2708 145.966 21.1759C145.829 21.0266 145.615 20.8773 145.321 20.728L144.36 20.2734C143.736 19.9524 143.333 19.6945 143.149 19.5C142.802 19.1382 142.629 18.7084 142.629 18.2108C142.629 17.65 142.881 17.1931 143.386 16.8403C143.93 16.4603 144.693 16.2703 145.676 16.2703C146.172 16.2703 146.672 16.3065 147.176 16.3789V17.5392C146.624 17.4351 146.141 17.3831 145.728 17.3831C145.321 17.3831 145.002 17.4103 144.774 17.4645C144.551 17.5188 144.381 17.5866 144.268 17.668C144.088 17.7947 143.998 17.9598 143.998 18.1634C143.998 18.3624 144.059 18.5252 144.182 18.6519C144.309 18.774 144.507 18.9074 144.774 19.0522L145.742 19.5339C146.373 19.8731 146.78 20.1333 146.96 20.3142C147.302 20.6579 147.473 21.0899 147.473 21.6101C147.473 22.1665 147.2 22.6142 146.656 22.9535C146.086 23.3109 145.29 23.4896 144.268 23.4896ZM152.514 23.4896C150.031 23.4896 148.789 22.2389 148.789 19.7375C148.789 18.661 149.134 17.7992 149.822 17.1524C150.441 16.5644 151.148 16.2703 151.942 16.2703C152.806 16.2703 153.482 16.5689 153.969 17.166C154.42 17.7223 154.647 18.4664 154.647 19.3982V19.9274H150.158C150.158 21.2075 150.665 21.99 151.678 22.275C151.92 22.3429 152.291 22.3768 152.79 22.3768C153.295 22.3768 153.789 22.3067 154.271 22.1665V23.3131C153.789 23.4307 153.203 23.4896 152.514 23.4896ZM153.331 18.93C153.331 18.4958 153.214 18.1294 152.982 17.8309C152.71 17.4871 152.334 17.3153 151.857 17.3153C151.352 17.3153 150.941 17.4803 150.625 17.8105C150.336 18.1181 150.191 18.4913 150.191 18.93H153.331ZM157.121 17.1456C157.503 16.8425 157.931 16.6209 158.405 16.4807C158.883 16.3405 159.3 16.2703 159.655 16.2703C160.01 16.2703 160.285 16.2795 160.478 16.2975V13.285H161.788V23.381H160.609L160.557 22.5736C160.29 22.94 159.883 23.2114 159.339 23.3877C159.129 23.4556 158.914 23.4896 158.694 23.4896C158.48 23.4896 158.267 23.4669 158.056 23.4217C157.845 23.3764 157.635 23.3018 157.424 23.1978C157.218 23.0893 157.021 22.949 156.832 22.7771C156.644 22.6007 156.474 22.3859 156.325 22.1326C156.009 21.5761 155.851 20.9181 155.851 20.1581C155.851 19.3982 155.968 18.783 156.2 18.3127C156.437 17.8376 156.745 17.4487 157.121 17.1456ZM157.918 17.953C157.694 18.1701 157.521 18.4506 157.398 18.7944C157.279 19.1336 157.22 19.5475 157.22 20.036C157.22 20.52 157.277 20.9203 157.392 21.2369C157.505 21.5491 157.648 21.7933 157.819 21.9697C158.121 22.2863 158.486 22.4446 158.912 22.4446C159.46 22.4446 159.914 22.2366 160.274 21.8204C160.367 21.7164 160.432 21.6237 160.472 21.5423V17.3696L160.34 17.356C160.139 17.3288 159.897 17.3153 159.616 17.3153C159.339 17.3153 159.044 17.3673 158.727 17.4713C158.411 17.5708 158.142 17.7313 157.918 17.953ZM176.162 25.9797C176.101 25.9932 175.917 26 175.61 26C175.303 26 174.953 25.9367 174.563 25.81C174.172 25.6878 173.819 25.5159 173.503 25.2943C172.925 24.8827 172.434 24.2902 172.036 23.5167L172.069 23.4692C170.892 23.3787 169.949 22.9061 169.238 22.0512C168.505 21.1691 168.139 20.0428 168.139 18.6723C168.139 17.2113 168.545 16.0352 169.356 15.1441C170.159 14.2666 171.202 13.8278 172.484 13.8278C173.769 13.8278 174.809 14.2666 175.603 15.1441C176.41 16.0352 176.814 17.2113 176.814 18.6723C176.814 19.9568 176.492 21.0289 175.847 21.8883C175.224 22.7205 174.381 23.2294 173.319 23.4149L173.339 23.4353C173.94 24.2675 174.785 24.6837 175.873 24.6837C175.873 24.6837 175.926 24.6837 176.03 24.6837C176.075 24.6837 176.118 24.6791 176.162 24.6701V25.9797ZM169.456 18.6654C169.456 19.6968 169.699 20.5494 170.186 21.2234C170.734 21.9743 171.501 22.3496 172.484 22.3496C173.466 22.3496 174.229 21.9743 174.773 21.2234C175.256 20.5584 175.497 19.7104 175.497 18.679C175.497 17.6386 175.256 16.7815 174.773 16.1075C174.229 15.3476 173.466 14.9676 172.484 14.9676C171.496 14.9676 170.73 15.3476 170.186 16.1075C169.699 16.7815 169.456 17.6342 169.456 18.6654ZM180.124 16.4468C180.124 17.3288 180.752 17.7699 182.007 17.7699H186.035V18.9233H185.218V23.381H184.079L184.034 22.5193C183.564 22.9581 182.945 23.2566 182.178 23.4149C181.932 23.4647 181.643 23.4896 181.31 23.4896C180.98 23.4896 180.634 23.4353 180.269 23.3267C179.91 23.2136 179.598 23.0417 179.335 22.8111C178.786 22.3316 178.512 21.6395 178.512 20.7349C178.512 20.07 178.803 19.4774 179.387 18.9572C179.615 18.7537 179.905 18.5773 180.256 18.428V18.4077C179.795 18.2177 179.436 17.9508 179.177 17.607C178.922 17.2633 178.795 16.9104 178.795 16.5485C178.795 16.1867 178.85 15.8564 178.959 15.558C179.074 15.2594 179.268 14.9902 179.545 14.7505C180.177 14.2077 181.142 13.9364 182.441 13.9364C183.187 13.9364 183.793 13.9612 184.258 14.011V15.2322C183.722 15.1282 183.187 15.0762 182.652 15.0762C182.121 15.0762 181.708 15.1101 181.414 15.178C181.125 15.2414 180.883 15.3341 180.69 15.4561C180.313 15.6914 180.124 16.0216 180.124 16.4468ZM181.691 22.4039C182.634 22.4039 183.389 22.1167 183.955 21.5423V18.9165L182 18.9233C181.311 18.9233 180.769 19.1155 180.375 19.5C180.019 19.8438 179.841 20.2621 179.841 20.7552C179.841 21.574 180.201 22.0896 180.921 22.3022C181.149 22.37 181.406 22.4039 181.691 22.4039ZM190.55 13.9364H191.452L195.314 23.381H193.945L193.018 21.0062H188.95L188.029 23.381H186.686L190.55 13.9364ZM192.596 19.9207L190.99 15.7819L189.378 19.9207H192.596ZM196.558 24.5344H195.189C196.002 23.8831 196.629 23.0734 197.072 22.1054C197.296 21.6169 197.469 21.0945 197.592 20.538C197.715 19.9772 197.776 19.3892 197.776 18.774C197.776 18.1543 197.715 17.564 197.592 17.0031C197.224 15.325 196.423 13.9907 195.189 13H196.558C197.015 13.389 197.399 13.8007 197.711 14.2349C198.571 15.4426 199 16.9534 199 18.7673C199 19.3281 198.959 19.8709 198.876 20.3956C198.608 22.0783 197.836 23.4579 196.558 24.5344Z" fill="black"/>
<path d="M15.944 21.5192C15.6208 21.5192 15.33 21.3966 15.0715 21.1207C14.6513 20.661 14.619 20.0787 15.0391 19.619C15.3623 19.2205 16.0086 18.8834 16.9135 18.5769C17.2366 18.485 17.5921 18.3624 17.9476 18.3011C18.1738 17.9026 18.4 17.4736 18.5939 17.0138C18.7878 16.5848 18.9494 16.1863 19.0786 15.7879C18.5616 14.9604 18.0768 13.9796 18.1092 13.2134C18.1092 12.5392 18.5293 12.1101 19.2079 12.0181C19.8219 11.9568 20.2743 12.2327 20.4682 12.7844C20.7267 13.5199 20.4682 14.6539 20.1774 15.6347C20.4359 16.0331 20.7267 16.4315 21.0822 16.8299C21.3731 17.1671 21.6316 17.4736 21.9224 17.78C23.0535 17.78 24.1199 17.872 24.7662 18.2091C25.3479 18.5156 25.5741 18.9753 25.4126 19.527C25.2187 20.14 24.7016 20.4465 24.0553 20.3545C23.2151 20.2626 22.2456 19.4964 21.5023 18.7608C20.9853 18.7914 20.4036 18.8221 19.8219 18.914C19.4018 18.9753 18.9817 19.0366 18.5939 19.1286C18.4646 19.3738 18.303 19.5883 18.1738 19.7722C17.6244 20.5384 17.1074 21.0594 16.6226 21.3353C16.3964 21.4579 16.1702 21.5192 15.944 21.5192ZM17.2043 19.4964C16.5257 19.7109 16.0086 19.9867 15.7824 20.2319C15.6855 20.3239 15.6855 20.3852 15.8147 20.5384C15.8793 20.5997 15.9117 20.661 16.1702 20.5384C16.461 20.3545 16.8488 19.9867 17.2043 19.4964ZM22.9565 18.7914C23.4413 19.1899 23.8614 19.4351 24.1846 19.4657C24.3138 19.4964 24.3785 19.4964 24.4754 19.2818C24.5077 19.2205 24.5077 19.1899 24.3138 19.0673C24.023 18.9447 23.5382 18.8221 22.9565 18.7914ZM19.7896 16.7993C19.6926 17.0445 19.5957 17.259 19.5311 17.4123C19.4341 17.6575 19.3048 17.872 19.2079 18.0865C19.3695 18.0559 19.5311 18.0252 19.6926 18.0252C20.0158 17.9946 20.339 17.9333 20.6621 17.9333C20.5005 17.7494 20.3713 17.5962 20.3066 17.5042C20.1774 17.3203 19.9835 17.0751 19.7896 16.7993ZM19.3372 12.9682C19.2079 12.9989 19.1109 12.9989 19.1109 13.2441C19.1109 13.5506 19.2402 13.9796 19.4987 14.5007C19.628 13.8877 19.6603 13.3973 19.5634 13.1215C19.4987 12.9682 19.4664 12.9682 19.3372 12.9682Z" fill="black"/>
<path d="M15.5884 23.6339C15.5884 23.3581 15.7823 23.2355 16.0085 23.2355H17.0749C17.7535 23.2355 18.3999 23.6339 18.3999 24.4614C18.3999 25.1663 17.9474 25.6873 17.1072 25.6873H16.4609V26.4536C16.4609 26.7294 16.267 26.8826 16.0408 26.8826C15.7823 26.8826 15.6207 26.7294 15.6207 26.4536V23.6339H15.5884ZM16.4609 24.9518H16.9133C17.2688 24.9518 17.495 24.7066 17.495 24.4614C17.495 24.1243 17.2688 23.971 16.9133 23.971H16.4609V24.9518Z" fill="black"/>
<path d="M18.8521 23.6339C18.8521 23.3581 19.0459 23.2355 19.2722 23.2355H20.3063C21.4373 23.2355 22.0836 24.0936 22.0836 25.0131C22.0836 26.2084 21.2434 26.852 20.3063 26.852H19.2722C19.0459 26.852 18.8521 26.6987 18.8521 26.4536V23.6339ZM19.7246 26.0858H20.177C20.8556 26.0858 21.1788 25.6567 21.1788 25.0131C21.1788 24.4001 20.8556 24.0017 20.2093 24.0017H19.7246V26.0858Z" fill="black"/>
<path d="M22.6011 23.6339C22.6011 23.3581 22.795 23.2355 23.0212 23.2355H24.3461C24.6047 23.2355 24.7662 23.3887 24.7662 23.6033C24.7662 23.8484 24.6047 23.971 24.3461 23.971H23.4413V24.6147H24.2169C24.4754 24.6147 24.637 24.7679 24.637 24.9824C24.637 25.2276 24.4754 25.3502 24.2169 25.3502H23.4413V26.3923C23.4413 26.6681 23.2474 26.8213 23.0212 26.8213C22.7627 26.8213 22.6011 26.6681 22.6011 26.3923V23.6339Z" fill="black"/>
<path d="M28.4829 12.3859C28.2244 12.3859 27.9982 12.6005 27.9982 12.8457V28.3538C27.9982 28.8748 27.5458 29.3039 26.9964 29.3039H12.9713C12.4219 29.3039 11.9695 28.8748 11.9695 28.3538V7.88058C11.9695 7.35958 12.4219 6.93048 12.9713 6.93048H23.1831V9.78078C23.1831 10.7003 23.991 11.4665 24.9605 11.4665H28.4506C28.6445 11.4665 28.8384 11.3439 28.9031 11.1906C28.9677 11.0374 28.9354 10.8229 28.8061 10.6696L24.0233 6.13358C23.8941 6.01108 23.7325 5.98038 23.6032 6.01108H13.0036C11.9048 6.01108 11 6.86918 11 7.91128V28.3844C11 29.4265 11.9048 30.2846 13.0036 30.2846H26.9964C28.0952 30.2846 29 29.4265 29 28.3844V12.8457C28.9677 12.6005 28.7738 12.3859 28.4829 12.3859ZM24.9605 10.5164C24.5081 10.5164 24.1526 10.1792 24.1526 9.75018V7.54348L27.2873 10.5164H24.9605Z" fill="black"/>
<path d="M223.227 1H4.77329C2.68936 1 1 2.16623 1 3.60484V32.3952C1 33.8338 2.68936 35 4.77329 35H223.227C225.311 35 227 33.8338 227 32.3952V3.60484C227 2.16623 225.311 1 223.227 1Z" stroke="black" stroke-width="0.4"/>
<path d="M208.386 1.00898L227.031 19.6537L227.039 33L194.944 1.00012L208.386 1.00898Z" fill="#FF2E00"/>
<path d="M211.924 7L212.913 7.98836C213.561 8.636 213.792 9.24047 213.607 9.80176C213.535 10.012 213.429 10.1866 213.291 10.3255C213.152 10.4644 213.026 10.5602 212.913 10.6127C212.804 10.6653 212.692 10.7009 212.575 10.7198C212.355 10.7554 212.124 10.7423 211.881 10.6803L211.87 10.6916C212.071 11.0539 212.137 11.4031 212.067 11.7391C212.015 11.9943 211.895 12.2159 211.707 12.4036C211.519 12.5913 211.319 12.7162 211.106 12.7781C210.896 12.8419 210.679 12.8541 210.455 12.8147C210.001 12.7321 209.549 12.4665 209.1 12.0178L208 10.9196L211.924 7ZM211.309 9.80458C211.611 10.1068 211.935 10.1913 212.279 10.058C212.399 10.0092 212.511 9.93317 212.614 9.82992C212.719 9.7248 212.796 9.62155 212.845 9.52018C212.896 9.41693 212.92 9.30899 212.916 9.19636C212.908 8.95607 212.779 8.7111 212.53 8.46142L212.059 7.99118L210.776 9.27239L211.309 9.80458ZM211.109 11.8292C211.566 11.373 211.52 10.8708 210.971 10.3227L210.348 9.7004L208.992 11.0548L209.528 11.5898C209.941 12.0028 210.345 12.1568 210.74 12.0516C210.873 12.016 210.996 11.9418 211.109 11.8292ZM212.643 15.6475C211.579 14.5849 211.567 13.5346 212.606 12.4965C213.053 12.0497 213.558 11.8395 214.122 11.8658C214.631 11.8864 215.056 12.0666 215.396 12.4064C215.766 12.7762 215.932 13.1893 215.892 13.6454C215.855 14.0696 215.642 14.4751 215.256 14.8618L215.035 15.0815L213.113 13.1611C212.581 13.6923 212.473 14.2339 212.789 14.7858C212.864 14.9172 213.009 15.0899 213.223 15.3039C213.439 15.5198 213.679 15.7019 213.944 15.8502L213.468 16.3261C213.213 16.1684 212.937 15.9422 212.643 15.6475ZM214.886 14.1044C215.067 13.9241 215.169 13.7224 215.193 13.499C215.22 13.2399 215.131 13.0081 214.925 12.8034C214.709 12.5876 214.465 12.4806 214.192 12.4824C213.941 12.4862 213.724 12.5791 213.542 12.7612L214.886 14.1044ZM215.712 17.734C215.751 17.8185 215.834 17.9236 215.96 18.0494C216.086 18.1751 216.206 18.2653 216.321 18.3197L215.87 18.7702C215.821 18.7402 215.758 18.6885 215.681 18.6153L215.498 18.4436C215.458 18.4042 215.428 18.3741 215.408 18.3535C215.045 17.9912 214.895 17.6054 214.959 17.1961C215.012 16.8658 215.196 16.5429 215.512 16.2275L216.89 14.8505L216.473 14.4338L216.738 14.1691L217.322 14.4197L218.178 13.834L218.606 14.2621L217.885 14.9829L218.787 15.884L218.356 16.3148L217.454 15.4137L216.078 16.7879C215.71 17.1558 215.588 17.4712 215.712 17.734ZM217.276 19.1503C217.322 18.9814 217.398 18.8059 217.504 18.6238C217.614 18.4436 217.784 18.2371 218.017 18.0043C218.25 17.7715 218.515 17.6073 218.809 17.5116C219.108 17.4158 219.401 17.3858 219.689 17.4214C220.245 17.4927 220.757 17.7612 221.223 18.2267C221.465 18.4689 221.642 18.6576 221.755 18.7927C221.755 18.7927 221.837 18.8932 222 19.0941L219.091 22L218.584 21.4932L218.897 21.1355C218.634 21.1731 218.35 21.113 218.046 20.9553C217.929 20.8952 217.824 20.8183 217.73 20.7244C217.638 20.6324 217.556 20.532 217.485 20.4231C217.413 20.3142 217.354 20.1932 217.307 20.0599C217.262 19.9285 217.235 19.7867 217.226 19.6347C217.218 19.4808 217.235 19.3193 217.276 19.1503ZM221.022 18.9448C220.917 18.8096 220.804 18.682 220.684 18.5619C220.566 18.4436 220.417 18.3385 220.239 18.2464C220.062 18.1526 219.881 18.1028 219.695 18.0973C219.307 18.086 218.922 18.2727 218.536 18.6576C218.172 19.0218 217.987 19.3765 217.983 19.722C217.983 19.981 218.075 20.2016 218.257 20.3837C218.492 20.6183 218.771 20.7263 219.094 20.7075C219.175 20.7019 219.241 20.6906 219.292 20.6737L221.022 18.9448Z" fill="white"/>
</svg>
