<svg version="1.2" xmlns="http://www.w3.org/2000/svg" viewBox="0 0 64 62" width="64" height="62">
	<title>noun-funnel-4382090-svg</title>
	<style>
		tspan { white-space:pre } 
		.s0 { fill: #000000 } 
		.t1 { font-size: 5px;fill: #000000;font-family: "' Helvetica  Neue'" } 
	</style>
	<g id="Layer 88">
		<path id="Layer" fill-rule="evenodd" class="s0" d="m24.2 61.3q0 0-0.1-0.1-0.1 0-0.2 0-0.1 0-0.2-0.1 0 0-0.1 0-0.1-0.1-0.3-0.2-0.1-0.2-0.1-0.3-0.1-0.1-0.2-0.3 0-0.1 0-0.3v-24.5l-18.9-26c-0.4-0.6-0.7-1.4-0.7-2.2-0.1-0.8 0.1-1.5 0.4-2.2 0.4-0.7 0.9-1.3 1.6-1.7 0.6-0.4 1.4-0.7 2.2-0.6h48.8c0.8 0 1.5 0.2 2.2 0.6 0.7 0.4 1.2 1 1.6 1.7 0.3 0.7 0.5 1.4 0.4 2.2 0 0.8-0.3 1.5-0.8 2.2l-19.2 26.7v16.2q0 0.2 0 0.4-0.1 0.1-0.2 0.3-0.1 0.1-0.2 0.3-0.1 0.1-0.3 0.2l-15.1 7.5q-0.1 0.1-0.1 0.1-0.1 0-0.2 0 0 0-0.1 0-0.1 0.1-0.2 0.1zm-16.6-56q-0.5 0-0.9 0.2-0.4 0.3-0.6 0.7-0.3 0.4-0.2 0.9 0 0.5 0.3 0.9l19.1 26.4q0 0.1 0.1 0.2 0 0.1 0 0.2 0.1 0.1 0.1 0.1 0 0.1 0 0.2v22.9l12.6-6.3v-15.9q0-0.1 0-0.2 0.1-0.1 0.1-0.2 0-0.1 0.1-0.2 0-0.1 0.1-0.1l19.4-27.1q0.3-0.4 0.3-0.9 0.1-0.5-0.2-0.9-0.2-0.4-0.6-0.7-0.4-0.2-0.9-0.2z"/>
	</g>
	<text id="Created by Colourcreatype" style="transform: matrix(1,0,0,1,0,79)" >
		<tspan x="0" y="0" class="t1">Created by Colourcreatype
</tspan>
	</text>
	<text id="from the Noun Project" style="transform: matrix(1,0,0,1,0,84)" >
		<tspan x="0" y="0" class="t1">from the Noun Project
</tspan>
	</text>
</svg>