<svg width="52" height="52" viewBox="0 0 52 52" fill="none" xmlns="http://www.w3.org/2000/svg">
<path d="M47.3839 21.6192C47.1679 21.6192 47.0059 21.6728 46.7899 21.6728L43.6579 14.1688C44.6839 13.4184 45.3859 12.1856 45.3859 10.792C45.3859 8.48723 43.4959 6.55763 41.1199 6.55763C39.7159 6.55763 38.5279 7.25443 37.7179 8.27283L30.1579 5.16403C30.2119 4.94963 30.2119 4.78883 30.2119 4.57443C30.2119 2.26963 28.3219 0.340027 25.9459 0.340027C23.5699 0.340027 21.6799 2.21603 21.6799 4.57443C21.6799 4.78883 21.7339 4.94963 21.7339 5.16403L14.1739 8.27283C13.4179 7.25443 12.1759 6.55763 10.7719 6.55763C8.44994 6.55763 6.50594 8.43363 6.50594 10.792C6.50594 12.1856 7.20794 13.3648 8.23394 14.1688L5.10194 21.6728C4.88594 21.6192 4.72394 21.6192 4.50794 21.6192C2.18594 21.6192 0.241943 23.4952 0.241943 25.8536C0.241943 28.212 2.13194 30.088 4.50794 30.088C4.72394 30.088 4.88594 30.0344 5.10194 30.0344L8.23394 37.5384C7.20794 38.2888 6.50594 39.5216 6.50594 40.9152C6.50594 43.22 8.39594 45.1496 10.7719 45.1496C12.1759 45.1496 13.3639 44.4528 14.1739 43.4344L21.7339 46.5432C21.6799 46.7576 21.6799 46.9184 21.6799 47.1328C21.6799 49.4376 23.5699 51.3672 25.9459 51.3672C28.3219 51.3672 30.2119 49.4912 30.2119 47.1328C30.2119 46.9184 30.1579 46.7576 30.1579 46.5432L37.7179 43.4344C38.4739 44.4528 39.7159 45.1496 41.1199 45.1496C43.4419 45.1496 45.3859 43.2736 45.3859 40.9152C45.3859 39.5216 44.6839 38.3424 43.6579 37.5384L46.7899 30.0344C47.0059 30.088 47.1679 30.088 47.3839 30.088C49.7059 30.088 51.6499 28.212 51.6499 25.8536C51.6499 23.4952 49.7599 21.6192 47.3839 21.6192ZM44.8459 22.4232C44.0899 23.0128 43.5499 23.8168 43.2799 24.728H39.4999C39.2839 21.78 38.0959 19.1536 36.3139 17.0096L39.0139 14.3296C39.6619 14.7048 40.3639 14.9192 41.1739 14.9192C41.3899 14.9192 41.5519 14.8656 41.7679 14.8656L44.8459 22.4232ZM25.9999 37.1632C19.6819 37.1632 14.5519 32.0712 14.5519 25.8C14.5519 19.5288 19.6819 14.4368 25.9999 14.4368C32.3179 14.4368 37.4479 19.5288 37.4479 25.8C37.4479 32.0712 32.3179 37.1632 25.9999 37.1632ZM41.1199 8.64803C42.3079 8.64803 43.2799 9.61283 43.2799 10.792C43.2799 11.9712 42.3079 12.936 41.1199 12.936C39.9319 12.936 38.9599 11.9712 38.9599 10.792C38.9599 9.61283 39.9319 8.64803 41.1199 8.64803ZM36.9619 10.2024C36.9079 10.4168 36.9079 10.5776 36.9079 10.792C36.9079 11.596 37.1239 12.2928 37.5019 12.936L34.8019 15.616C32.6959 13.7936 29.9959 12.668 27.0259 12.4V8.64803C27.9979 8.38003 28.8079 7.84403 29.3479 7.09363L36.9619 10.2024ZM25.9999 2.43043C27.1879 2.43043 28.1599 3.39523 28.1599 4.57443C28.1599 5.75363 27.1879 6.71843 25.9999 6.71843C24.8119 6.71843 23.8399 5.75363 23.8399 4.57443C23.8399 3.39523 24.8119 2.43043 25.9999 2.43043ZM22.5979 7.09363C23.1919 7.84403 24.0019 8.38003 24.9199 8.64803V12.4C21.9499 12.6144 19.3039 13.7936 17.1439 15.5624L14.4439 12.8824C14.8219 12.2392 15.0379 11.5424 15.0379 10.7384C15.0379 10.524 14.9839 10.3632 14.9839 10.1488L22.5979 7.09363ZM10.8799 8.64803C12.0679 8.64803 13.0399 9.61283 13.0399 10.792C13.0399 11.9712 12.0679 12.936 10.8799 12.936C9.69194 12.936 8.71994 11.9712 8.71994 10.792C8.71994 9.61283 9.69194 8.64803 10.8799 8.64803ZM10.2859 14.9192C10.5019 14.9728 10.6639 14.9728 10.8799 14.9728C11.6899 14.9728 12.3919 14.7584 13.0399 14.3832L15.7399 17.0632C13.9039 19.1536 12.7699 21.8336 12.4999 24.7816H8.71994C8.44994 23.8168 7.90994 23.0128 7.15394 22.4768L10.2859 14.9192ZM2.45594 25.8C2.45594 24.6208 3.42794 23.656 4.61594 23.656C5.80394 23.656 6.77594 24.6208 6.77594 25.8C6.77594 26.9792 5.80394 27.944 4.61594 27.944C3.42794 27.944 2.45594 26.9792 2.45594 25.8ZM7.15394 29.1768C7.90994 28.5872 8.44994 27.7832 8.71994 26.872H12.4999C12.7159 29.82 13.9039 32.4464 15.6859 34.5904L12.9859 37.2704C12.3379 36.8952 11.6359 36.6808 10.8259 36.6808C10.6099 36.6808 10.4479 36.7344 10.2319 36.7344L7.15394 29.1768ZM10.8799 42.952C9.69194 42.952 8.71994 41.9872 8.71994 40.808C8.71994 39.6288 9.69194 38.664 10.8799 38.664C12.0679 38.664 13.0399 39.6288 13.0399 40.808C12.9859 41.9872 12.0679 42.952 10.8799 42.952ZM15.0379 41.3976C15.0919 41.1832 15.0919 41.0224 15.0919 40.808C15.0919 40.004 14.8759 39.3072 14.4979 38.664L17.1979 35.984C19.3039 37.8064 22.0039 38.932 24.9739 39.2V42.952C24.0019 43.1664 23.1919 43.756 22.6519 44.5064L15.0379 41.3976ZM25.9999 49.1696C24.8119 49.1696 23.8399 48.2048 23.8399 47.0256C23.8399 45.8464 24.8119 44.8816 25.9999 44.8816C27.1879 44.8816 28.1599 45.8464 28.1599 47.0256C28.1599 48.2048 27.1879 49.1696 25.9999 49.1696ZM29.4019 44.5064C28.8079 43.756 27.9979 43.22 27.0799 42.952V39.2C30.0499 38.9856 32.6959 37.8064 34.8559 36.0376L37.5559 38.7176C37.1779 39.3608 36.9619 40.0576 36.9619 40.8616C36.9619 41.076 37.0159 41.2368 37.0159 41.4512L29.4019 44.5064ZM41.1199 42.952C39.9319 42.952 38.9599 41.9872 38.9599 40.808C38.9599 39.6288 39.9319 38.664 41.1199 38.664C42.3079 38.664 43.2799 39.6288 43.2799 40.808C43.2799 41.9872 42.3079 42.952 41.1199 42.952ZM41.7139 36.6808C41.4979 36.6272 41.3359 36.6272 41.1199 36.6272C40.3099 36.6272 39.6079 36.8416 38.9599 37.2168L36.2599 34.5368C38.0959 32.4464 39.2299 29.7664 39.4999 26.8184H43.2799C43.5499 27.7832 44.0899 28.5872 44.8459 29.1232L41.7139 36.6808ZM47.3839 27.944C46.1959 27.944 45.2239 26.9792 45.2239 25.8C45.2239 24.6208 46.1959 23.656 47.3839 23.656C48.5719 23.656 49.5439 24.6208 49.5439 25.8C49.5439 26.9792 48.5719 27.944 47.3839 27.944Z" fill="#A00F1F"/>
<path d="M29.1859 25.6928C28.2679 26.336 27.1879 26.6576 25.9999 26.6576C24.8119 26.6576 23.7319 26.2824 22.8139 25.6928C21.1939 26.2824 20.0059 27.7832 20.0059 29.6056V31.3744C20.0059 31.9104 20.3299 32.3928 20.7619 32.6608C20.7619 32.6608 20.7619 32.6608 20.8159 32.6608C21.6259 33.0896 22.5439 33.304 23.4079 33.304H28.5379C29.4559 33.304 30.3739 33.0896 31.1299 32.6608C31.6159 32.3928 31.8859 31.9104 31.8859 31.3744V29.552C31.9939 27.7832 30.8059 26.2288 29.1859 25.6928Z" fill="#A00F1F"/>
<path d="M25.9998 24.6208C27.9978 24.6208 29.6178 23.0128 29.6178 21.0296C29.6178 19.0464 27.9978 17.4384 25.9998 17.4384C24.0018 17.4384 22.3818 19.0464 22.3818 21.0296C22.3818 23.0128 24.0018 24.6208 25.9998 24.6208Z" fill="#A00F1F"/>
</svg>
