<svg width="50" height="50" viewBox="0 0 50 50" fill="none" xmlns="http://www.w3.org/2000/svg">
<path d="M9.66187 3C7.7732 3 6.25 4.5232 6.25 6.41187V9.25V19.3269L13.3606 12.2163C14.2761 11.3008 15.747 11.3008 16.6626 12.2163L34.6375 30.1912C35.553 31.1067 35.553 32.5776 34.6375 33.4932L27.6306 40.5H50V9.25H28.125V6.41187C28.125 4.5232 26.6018 3 24.7131 3H9.66187Z" fill="#A00F1F"/>
<path d="M14.8438 17.0624C14.4438 17.0624 14.0439 17.2156 13.7374 17.5221L11.3314 19.9281L14.0263 22.6229C14.2896 22.5334 14.5657 22.4871 14.8438 22.4861C15.5252 22.4861 16.1786 22.7567 16.6604 23.2385C17.1422 23.7203 17.4129 24.3738 17.4129 25.0552C17.4121 25.3335 17.3662 25.6098 17.2767 25.8734L20.8773 29.4739C21.1406 29.3843 21.4167 29.3381 21.6948 29.337C22.0322 29.337 22.3662 29.4035 22.6779 29.5326C22.9896 29.6617 23.2728 29.8509 23.5114 30.0895C23.75 30.3281 23.9392 30.6113 24.0683 30.923C24.1974 31.2347 24.2639 31.5688 24.2639 31.9061C24.2639 32.2435 24.1974 32.5776 24.0683 32.8893C23.9392 33.201 23.75 33.4842 23.5114 33.7228C23.2728 33.9613 22.9896 34.1506 22.6779 34.2797C22.3662 34.4088 22.0322 34.4752 21.6948 34.4752C21.3574 34.4752 21.0233 34.4088 20.7116 34.2797C20.3999 34.1506 20.1167 33.9613 19.8781 33.7228C19.6396 33.4842 19.4503 33.201 19.3212 32.8893C19.1921 32.5776 19.1257 32.2435 19.1257 31.9061C19.1265 31.6279 19.1724 31.3516 19.2618 31.0881L15.9856 27.8119V36.4591C16.4137 36.6715 16.7741 36.9991 17.0262 37.405C17.2784 37.811 17.4123 38.2792 17.4129 38.7571C17.4129 39.4385 17.1422 40.0919 16.6604 40.5737C16.1786 41.0555 15.5252 41.3262 14.8438 41.3262C14.5064 41.3262 14.1724 41.2598 13.8607 41.1307C13.549 41.0015 13.2657 40.8123 13.0272 40.5737C12.7886 40.3352 12.5994 40.052 12.4703 39.7403C12.3411 39.4286 12.2747 39.0945 12.2747 38.7571C12.2749 38.2788 12.4086 37.8101 12.6608 37.4037C12.913 36.9974 13.2735 36.6694 13.702 36.4569V27.3532C13.2739 27.1408 12.9135 26.8132 12.6614 26.4072C12.4092 26.0013 12.2753 25.5331 12.2747 25.0552C12.2755 24.7769 12.3215 24.5006 12.4109 24.2371L9.7166 21.5429L0.459736 30.7997C-0.153245 31.4127 -0.153245 32.3996 0.459736 33.0126L13.7374 46.2902C14.3504 46.9032 15.3373 46.9032 15.9502 46.2902L29.2279 33.0126C29.8409 32.3996 29.8409 31.4127 29.2279 30.7997L15.9502 17.5221C15.6437 17.2156 15.2438 17.0624 14.8438 17.0624Z" fill="#A00F1F"/>
</svg>
