<svg width="50" height="50" viewBox="0 0 50 50" fill="none" xmlns="http://www.w3.org/2000/svg">
<path d="M39.724 0H12.3731V2.7027H39.724V0Z" fill="white"/>
<path d="M39.3349 10.1724C34.9594 5.63256 27.9294 5.63702 23.5505 10.0588C19.1142 14.5385 19.0535 22.0932 23.4212 26.6457C27.1832 30.5669 32.8484 31.0707 37.0973 28.4669C37.3532 28.3103 37.679 28.353 37.8889 28.5711L39.27 30.0039L42.5532 26.5974L41.1721 25.1646C40.962 24.9466 40.9206 24.6088 41.0718 24.3432C43.6778 19.7649 42.9636 13.9377 39.3349 10.1724ZM31.3489 27.7977C26.376 27.7977 22.3302 23.6 22.3302 18.4404C22.3302 13.2807 26.376 9.08297 31.3489 9.08297C36.3218 9.08297 40.3674 13.2807 40.3674 18.4404C40.3674 23.6001 36.3218 27.7977 31.3489 27.7977Z" fill="white"/>
<path d="M4.55847 45.9459C4.55847 48.1814 6.31128 50 8.46575 50H37.1191V45.9459H15.6291C15.2694 45.9459 14.9779 45.6435 14.9779 45.2703C14.9779 44.897 15.2694 44.5946 15.6291 44.5946H37.1191V41.8919H8.46575C6.31128 41.8919 4.55847 43.7105 4.55847 45.9459Z" fill="white"/>
<path d="M31.3489 10.4343C27.0941 10.4343 23.6327 14.0258 23.6327 18.4404C23.6327 22.8549 27.0941 26.4464 31.3489 26.4464C35.6035 26.4464 39.065 22.8549 39.065 18.4404C39.065 14.0258 35.6035 10.4343 31.3489 10.4343ZM30.607 21.6216H26.0485C25.6888 21.6216 25.3973 21.3192 25.3973 20.9459C25.3973 20.5727 25.6888 20.2703 26.0485 20.2703H30.607C30.9668 20.2703 31.2582 20.5727 31.2582 20.9459C31.2582 21.3192 30.9668 21.6216 30.607 21.6216ZM36.4679 18.9189H26.0485C25.6888 18.9189 25.3973 18.6165 25.3973 18.2432C25.3973 17.87 25.6888 17.5676 26.0485 17.5676H36.4679C36.8277 17.5676 37.1192 17.87 37.1192 18.2432C37.1192 18.6165 36.8277 18.9189 36.4679 18.9189ZM37.1192 15.5405C37.1192 15.9138 36.8277 16.2162 36.4679 16.2162H26.0485C25.6888 16.2162 25.3973 15.9138 25.3973 15.5405C25.3973 15.1673 25.6888 14.8649 26.0485 14.8649H36.4679C36.8277 14.8649 37.1192 15.1673 37.1192 15.5405Z" fill="white"/>
<path d="M39.724 37.8378H12.3731V40.5405H39.724V37.8378Z" fill="white"/>
<path d="M31.3871 31.4319C24.5592 31.4319 18.8288 25.7484 18.8856 18.3172C18.9418 10.9869 24.6148 5.4054 31.3872 5.4054C34.4927 5.4054 37.4254 6.56932 39.724 8.69688V4.05405H12.3731V31.0811H19.5364C19.8961 31.0811 20.1876 31.3835 20.1876 31.7568C20.1876 32.13 19.8961 32.4324 19.5364 32.4324H12.3731V33.7838H19.5364C19.8961 33.7838 20.1876 34.0862 20.1876 34.4595C20.1876 34.8327 19.8961 35.1351 19.5364 35.1351H12.3731V36.4865H39.724V32.3861L37.3173 29.889C35.5021 30.8999 33.4625 31.4319 31.3871 31.4319Z" fill="white"/>
<path d="M43.4731 27.5531L40.19 30.9595L40.8457 31.6398L44.1288 28.2333L43.4731 27.5531Z" fill="white"/>
<path d="M49.3195 33.6182L45.0504 29.1886L41.7673 32.5951L46.0364 37.0246C46.9439 37.9659 48.412 37.9661 49.3194 37.0246C50.2267 36.0834 50.227 34.5598 49.3195 33.6182Z" fill="white"/>
<path d="M4.56059 3.56284C6.76559 3.89284 8.46578 5.86541 8.46578 8.24324C8.46578 8.98838 7.88151 9.5946 7.16336 9.5946C6.4452 9.5946 5.86093 8.98838 5.86093 8.24324C5.86093 7.36392 5.31756 6.61568 4.5615 6.33568L4.56593 10.3203C6.76833 10.6526 8.46565 12.6242 8.46565 15C8.46565 15.7451 7.88138 16.3514 7.16322 16.3514C6.44507 16.3514 5.8608 15.7451 5.8608 15C5.8608 14.1238 5.32094 13.3776 4.56905 13.0953L4.57361 17.0781C6.77237 17.4138 8.46578 19.3836 8.46578 21.7568C8.46578 22.5019 7.88151 23.1081 7.16336 23.1081C6.4452 23.1081 5.86093 22.5019 5.86093 21.7568C5.86093 20.8834 5.32485 20.1393 4.57687 19.855L4.58142 23.8358C6.7764 24.175 8.46578 26.1432 8.46578 28.5135C8.46578 29.2587 7.88151 29.8649 7.16336 29.8649C6.4452 29.8649 5.86093 29.2587 5.86093 28.5135C5.86093 27.6431 5.3285 26.9012 4.58442 26.6146L4.58898 30.5935C6.78031 30.9361 8.46578 32.9026 8.46578 35.2703C8.46578 36.0154 7.88151 36.6216 7.16336 36.6216C6.4452 36.6216 5.86093 36.0154 5.86093 35.2703C5.86093 34.4027 5.33201 33.663 4.5921 33.3743L4.59679 37.5045C5.4125 38.0353 5.41368 39.2584 4.59953 39.7915L4.60226 42.3241C5.55629 41.2296 6.93491 40.5405 8.46578 40.5405H11.0706V0H8.07505C6.16374 0 4.60474 1.59068 4.56059 3.56284Z" fill="white"/>
<path d="M4.55849 38.6486C4.55849 38.2754 4.26701 37.973 3.90728 37.973C2.47096 37.973 1.30243 36.7605 1.30243 35.2703C1.30243 33.78 2.47096 32.5676 3.90728 32.5676C5.3436 32.5676 6.51214 33.78 6.51214 35.2703C6.51214 35.6435 6.80362 35.9459 7.16335 35.9459C7.52308 35.9459 7.81456 35.6435 7.81456 35.2703C7.81456 33.0349 6.06176 31.2162 3.90728 31.2162C2.47096 31.2162 1.30243 30.0038 1.30243 28.5135C1.30243 27.0232 2.47096 25.8108 3.90728 25.8108C5.3436 25.8108 6.51214 27.0232 6.51214 28.5135C6.51214 28.8867 6.80362 29.1892 7.16335 29.1892C7.52308 29.1892 7.81456 28.8867 7.81456 28.5135C7.81456 26.2781 6.06176 24.4595 3.90728 24.4595C2.47096 24.4595 1.30243 23.2469 1.30243 21.7567C1.30243 20.2666 2.47096 19.054 3.90728 19.054C5.3436 19.054 6.51214 20.2666 6.51214 21.7567C6.51214 22.13 6.80362 22.4324 7.16335 22.4324C7.52308 22.4324 7.81456 22.13 7.81456 21.7567C7.81456 19.5213 6.06176 17.7027 3.90728 17.7027C2.47096 17.7027 1.30243 16.4901 1.30243 15C1.30243 13.5099 2.47096 12.2973 3.90728 12.2973C5.3436 12.2973 6.51214 13.5099 6.51214 15C6.51214 15.3732 6.80362 15.6757 7.16335 15.6757C7.52308 15.6757 7.81456 15.3732 7.81456 15C7.81456 12.7646 6.06176 10.9459 3.90728 10.9459C2.47096 10.9459 1.30243 9.73337 1.30243 8.24323C1.30243 6.7531 2.47096 5.54053 3.90728 5.54053C5.3436 5.54053 6.51214 6.7531 6.51214 8.24323C6.51214 8.61648 6.80362 8.91891 7.16335 8.91891C7.52308 8.91891 7.81456 8.61648 7.81456 8.24323C7.81456 6.00783 6.06176 4.18918 3.90728 4.18918C1.75281 4.18918 0 6.00783 0 8.24323C0 9.65215 0.696538 10.8947 1.75059 11.6216C-0.584659 13.2316 -0.580231 16.7712 1.75059 18.3784C-0.584659 19.9886 -0.580361 23.5278 1.75059 25.1351C-0.584659 26.7454 -0.580231 30.2846 1.75059 31.8919C0.696408 32.6188 0 33.8615 0 35.2703C0 37.5057 1.75281 39.3243 3.90728 39.3243C4.26701 39.3243 4.55849 39.0219 4.55849 38.6486Z" fill="white"/>
</svg>
