<?xml version="1.0" encoding="UTF-8" ?>
<!DOCTYPE svg PUBLIC "-//W3C//DTD SVG 1.1//EN" "http://www.w3.org/Graphics/SVG/1.1/DTD/svg11.dtd">
<svg width="493pt" height="202pt" viewBox="0 0 493 202" version="1.1" xmlns="http://www.w3.org/2000/svg">
<path fill="#ffffff" d=" M 0.00 0.00 L 493.00 0.00 L 493.00 202.00 L 0.00 202.00 L 0.00 0.00 Z" />
<path fill="#006592" d=" M 71.43 14.27 C 74.64 12.56 77.66 10.48 81.03 9.08 C 84.42 10.32 87.36 12.52 90.55 14.19 C 90.62 17.88 90.58 21.57 90.61 25.26 C 87.48 27.19 84.22 28.91 80.96 30.62 C 77.79 28.73 74.59 26.88 71.36 25.09 C 71.39 21.49 71.40 17.88 71.43 14.27 Z" />
<path fill="#006592" d=" M 52.88 47.22 C 61.03 42.65 69.15 38.04 77.19 33.28 C 78.38 33.80 79.57 34.32 80.75 34.85 C 78.59 44.60 76.54 54.38 74.30 64.11 C 76.26 67.49 78.28 70.84 80.51 74.05 C 82.82 70.77 85.83 67.85 87.38 64.13 C 85.53 54.36 83.35 44.65 81.30 34.92 C 82.47 34.37 83.64 33.83 84.81 33.29 C 92.61 38.17 100.86 42.36 108.53 47.43 C 108.93 58.11 108.53 68.84 108.66 79.54 C 99.46 84.93 90.00 89.88 80.88 95.40 C 71.59 89.86 62.10 84.69 52.85 79.12 C 52.86 68.48 52.87 57.85 52.88 47.22 Z" />
<path fill="#70bde8" d=" M 29.86 60.88 C 32.59 58.56 35.87 56.90 39.13 55.44 C 42.83 56.41 45.88 58.94 49.18 60.80 C 49.15 64.22 49.15 67.65 49.17 71.08 C 45.90 73.10 42.54 74.97 39.13 76.73 C 36.00 74.87 32.84 73.05 29.71 71.18 C 29.70 67.75 29.48 64.30 29.86 60.88 Z" />
<path fill="#52a653" d=" M 111.79 60.97 C 115.12 59.13 118.44 57.28 121.75 55.41 C 124.89 57.23 128.02 59.06 131.17 60.88 C 131.21 64.61 131.19 68.35 130.81 72.07 C 127.63 73.57 124.75 75.72 121.41 76.85 C 118.01 75.32 114.92 73.20 111.73 71.31 C 111.77 67.86 111.78 64.42 111.79 60.97 Z" />
<path fill="#70bde8" d=" M 11.14 93.47 C 19.45 88.84 27.67 84.06 35.98 79.43 C 36.97 80.08 37.97 80.72 38.97 81.37 C 37.08 89.97 35.34 98.61 33.40 107.21 C 31.82 112.34 36.73 116.19 38.75 120.44 C 41.14 117.23 43.53 114.01 45.89 110.78 C 43.67 101.14 41.90 91.40 39.64 81.77 C 40.69 80.99 41.74 80.21 42.80 79.43 C 50.66 84.57 59.35 88.43 66.93 93.95 C 67.56 98.93 67.10 103.98 67.20 108.99 C 67.09 114.30 67.55 119.68 66.64 124.95 C 66.44 126.11 65.03 126.44 64.24 127.11 C 55.83 131.90 47.43 136.68 39.02 141.45 C 29.76 135.92 20.31 130.71 11.13 125.04 C 11.27 114.52 11.23 103.99 11.14 93.47 Z" />
<path fill="#52a653" d=" M 93.62 93.85 C 101.68 89.11 109.90 84.65 118.04 80.04 C 119.03 80.54 120.03 81.04 121.02 81.54 C 119.51 91.36 116.84 100.97 115.03 110.75 C 116.85 114.24 118.88 117.61 120.99 120.93 C 123.02 117.96 125.40 115.23 127.34 112.20 C 128.17 111.02 127.61 109.54 127.48 108.25 C 125.76 99.43 123.82 90.66 121.99 81.86 C 123.00 81.23 124.01 80.61 125.02 79.99 C 133.10 84.64 141.29 89.12 149.18 94.06 C 150.19 104.49 149.19 115.06 149.55 125.55 C 140.16 131.15 130.60 136.45 121.11 141.90 C 111.99 136.41 102.76 131.12 93.56 125.76 C 93.38 115.13 93.69 104.49 93.62 93.85 Z" />
<path fill="#0098d2" d=" M 158.48 93.48 C 160.93 93.48 163.39 93.49 165.84 93.50 C 165.75 98.15 165.58 102.82 165.87 107.48 C 170.16 107.49 174.44 107.50 178.73 107.51 C 179.24 102.86 179.27 98.18 179.35 93.51 C 181.80 93.55 184.26 93.58 186.72 93.64 C 186.43 104.85 186.70 116.07 186.43 127.28 C 184.04 127.28 181.64 127.29 179.25 127.31 C 178.68 122.99 178.78 118.63 178.89 114.28 C 174.48 114.27 170.07 114.23 165.66 114.30 C 165.68 118.61 165.71 122.93 165.53 127.24 C 163.15 127.23 160.78 127.23 158.41 127.24 C 158.15 115.99 158.30 104.73 158.48 93.48 Z" />
<path fill="#0098d2" d=" M 194.66 93.58 C 197.17 93.60 199.69 93.62 202.21 93.66 C 202.41 100.44 202.24 107.22 202.34 113.99 C 202.13 117.62 205.28 121.23 209.06 120.78 C 212.68 120.96 215.36 117.40 215.45 114.03 C 215.61 107.24 215.61 100.45 215.70 93.66 C 218.23 93.66 220.76 93.68 223.29 93.70 C 223.39 100.14 223.51 106.59 223.41 113.04 C 223.28 117.99 221.05 123.26 216.53 125.70 C 208.69 130.26 196.44 126.44 194.81 116.86 C 193.95 109.14 194.76 101.33 194.66 93.58 Z" />
<path fill="#0098d2" d=" M 230.64 94.22 C 234.07 93.60 237.56 93.66 241.04 93.72 C 243.86 99.71 246.50 105.77 249.39 111.72 C 253.21 106.05 255.36 99.47 258.88 93.62 C 262.08 93.68 265.27 93.68 268.47 93.66 C 268.45 104.89 268.37 116.12 268.40 127.35 C 265.83 127.36 263.26 127.35 260.69 127.32 C 260.75 120.58 260.84 113.84 260.53 107.11 C 257.94 113.02 254.76 118.65 252.00 124.49 C 250.37 124.47 248.75 124.45 247.13 124.42 C 244.35 118.51 241.24 112.76 238.69 106.75 C 238.42 113.62 238.45 120.51 238.41 127.39 C 235.87 127.38 233.32 127.37 230.78 127.36 C 230.68 116.31 231.03 105.26 230.64 94.22 Z" />
<path fill="#0098d2" d=" M 286.77 94.21 C 289.18 94.24 291.59 94.26 294.00 94.26 C 298.71 105.35 303.26 116.51 308.33 127.44 C 305.69 127.48 303.05 127.67 300.43 127.37 C 298.79 125.42 298.21 122.80 297.14 120.51 C 292.44 120.44 287.75 120.38 283.06 120.54 C 282.11 122.85 281.12 125.14 280.11 127.42 C 277.41 127.41 274.71 127.40 272.01 127.36 C 276.95 116.32 281.64 105.16 286.77 94.21 Z" />
<path fill="#0098d2" d=" M 364.38 94.49 C 373.24 94.49 382.10 94.58 390.97 94.56 C 390.92 96.85 390.88 99.14 390.80 101.43 C 387.66 101.38 384.52 101.36 381.39 101.33 C 381.41 110.30 381.44 119.26 381.31 128.22 C 378.94 128.24 376.56 128.27 374.19 128.32 C 373.12 119.37 373.95 110.30 373.80 101.31 C 370.69 101.30 367.58 101.30 364.48 101.32 C 364.40 99.04 364.37 96.77 364.38 94.49 Z" />
<path fill="#0098d2" d=" M 413.60 100.62 C 418.28 94.49 426.92 92.88 434.01 95.14 C 436.91 96.16 439.25 98.23 441.63 100.11 C 440.10 101.96 438.55 103.79 437.02 105.63 C 433.36 101.46 426.74 99.70 421.98 103.02 C 415.86 107.08 416.68 117.73 423.38 120.76 C 428.01 122.95 433.16 120.77 436.66 117.53 C 438.27 119.14 439.87 120.75 441.47 122.37 C 437.78 125.72 433.27 128.93 428.02 128.57 C 420.39 129.17 412.60 124.05 410.63 116.56 C 409.37 111.17 409.93 105.00 413.60 100.62 Z" />
<path fill="#0098d2" d=" M 446.81 99.84 C 449.06 95.51 454.39 93.89 458.99 94.42 C 463.39 94.10 467.34 96.30 470.87 98.66 C 469.57 100.41 468.29 102.16 467.03 103.94 C 463.86 102.42 460.60 100.41 456.96 100.69 C 454.10 100.83 452.74 105.21 455.52 106.44 C 459.47 108.34 464.21 108.44 467.78 111.20 C 472.40 114.35 472.55 121.90 468.44 125.54 C 464.98 128.81 459.83 129.08 455.36 128.46 C 451.16 127.90 447.63 125.36 444.24 123.01 C 445.81 121.16 447.40 119.31 448.97 117.46 C 451.96 119.73 455.23 121.90 459.04 122.40 C 461.74 122.56 465.41 118.79 462.23 116.73 C 458.32 114.22 453.17 114.45 449.41 111.57 C 445.66 109.09 445.13 103.71 446.81 99.84 Z" />
<path fill="#0098d2" d=" M 312.20 127.54 C 312.30 116.44 312.16 105.35 312.46 94.26 C 315.19 94.71 319.05 93.14 320.77 96.06 C 325.57 102.69 330.64 109.11 335.50 115.69 C 335.75 108.62 335.69 101.54 335.55 94.47 C 338.15 94.41 340.75 94.39 343.36 94.38 C 343.30 105.46 343.28 116.55 343.27 127.63 C 340.69 127.65 338.12 127.66 335.55 127.69 C 330.11 121.03 325.27 113.89 319.79 107.25 C 319.63 114.02 319.69 120.79 319.67 127.56 C 317.18 127.57 314.69 127.56 312.20 127.54 Z" />
<path fill="#0098d2" d=" M 351.24 127.70 C 351.38 116.60 351.29 105.51 351.47 94.42 C 354.02 94.43 356.57 94.45 359.12 94.50 C 359.52 105.58 358.85 116.64 358.80 127.71 C 356.27 127.71 353.75 127.71 351.24 127.70 Z" />
<path fill="#0098d2" d=" M 396.41 94.82 C 398.97 94.45 401.58 94.59 404.17 94.64 C 403.57 105.85 403.98 117.09 403.71 128.31 C 401.23 128.31 398.75 128.31 396.28 128.31 C 396.15 117.15 396.16 105.98 396.41 94.82 Z" />
<path fill="#0098d2" d=" M 71.14 107.01 C 74.09 104.77 77.39 102.88 80.85 101.53 C 83.80 102.99 86.54 104.84 89.55 106.20 C 89.98 109.80 90.47 113.46 90.00 117.09 C 87.32 119.68 83.77 121.71 80.21 122.76 C 76.82 121.45 73.85 119.27 70.77 117.37 C 70.89 113.92 70.52 110.43 71.14 107.01 Z" />
<path fill="#ffffff" d=" M 286.27 113.55 C 287.56 110.47 288.87 107.39 290.09 104.28 C 291.55 107.35 292.91 110.46 294.30 113.56 C 291.62 113.55 288.94 113.55 286.27 113.55 Z" />
<path fill="#0098d2" d=" M 75.64 126.70 C 77.31 125.59 79.05 127.11 80.62 127.63 C 77.80 137.21 76.37 147.13 73.79 156.77 C 75.80 160.13 77.88 163.46 79.95 166.78 C 82.09 163.43 85.29 160.61 86.69 156.89 C 85.62 146.90 81.95 137.25 81.34 127.22 C 83.08 125.89 85.26 126.16 86.94 127.44 C 94.09 131.67 101.28 135.85 108.51 139.95 C 108.48 150.59 108.45 161.23 108.39 171.88 C 100.09 176.75 91.67 181.42 83.38 186.31 C 82.03 186.94 80.43 188.31 78.97 187.19 C 70.11 182.16 61.40 176.87 52.51 171.88 C 52.58 161.17 52.62 150.45 52.70 139.73 C 60.39 135.47 67.93 130.92 75.64 126.70 Z" />
<path fill="#52a653" d=" M 394.47 135.23 C 394.98 135.26 396.00 135.31 396.50 135.34 C 396.50 139.26 396.48 143.19 396.48 147.11 C 397.83 146.05 399.19 145.01 400.57 143.98 C 399.93 143.48 399.29 142.98 398.65 142.50 L 401.72 142.97 L 400.44 140.72 C 400.92 141.26 401.41 141.79 401.92 142.32 C 402.96 140.83 404.61 140.25 406.33 140.06 C 404.55 142.10 402.63 144.00 400.73 145.92 C 402.49 148.86 405.95 151.29 405.64 155.06 C 403.17 152.56 401.15 149.68 399.03 146.90 C 396.89 148.66 396.17 151.19 396.22 153.86 C 395.77 153.86 394.86 153.85 394.41 153.85 C 394.48 147.64 394.40 141.44 394.47 135.23 Z" />
<path fill="#52a653" d=" M 320.53 140.46 C 322.41 138.20 325.39 137.49 328.02 136.47 C 330.49 137.35 333.28 137.87 335.16 139.86 C 338.75 143.33 339.49 149.69 335.96 153.46 C 334.40 153.98 332.94 153.22 331.57 152.58 C 329.32 153.18 327.03 153.53 324.72 153.68 C 323.77 151.69 322.21 149.09 324.08 147.12 C 326.08 144.65 329.57 145.82 332.27 145.42 C 331.28 144.43 330.24 143.49 329.15 142.61 C 327.54 142.74 325.99 143.22 324.42 143.61 C 324.51 143.13 324.68 142.18 324.77 141.71 C 327.26 140.97 330.43 140.03 332.17 142.66 C 333.43 145.77 333.10 149.23 333.69 152.49 C 339.95 149.91 336.89 140.88 331.45 139.38 C 326.32 136.99 319.01 141.18 319.38 147.07 C 319.37 150.29 321.92 153.08 324.75 154.31 C 327.48 154.85 330.28 154.57 333.05 154.81 C 329.93 157.23 325.25 157.36 322.18 154.81 C 317.75 151.61 316.86 144.55 320.53 140.46 Z" />
<path fill="#52a653" d=" M 209.22 153.97 C 209.32 148.81 209.13 143.65 209.58 138.52 C 210.10 139.05 211.16 140.13 211.68 140.67 C 213.81 139.72 216.22 138.54 218.56 139.55 C 221.87 140.71 223.37 144.59 222.67 147.85 C 222.46 150.41 220.03 151.79 218.32 153.34 C 217.42 153.32 215.63 153.28 214.73 153.26 C 213.63 152.47 212.54 151.67 211.44 150.88 C 210.94 153.81 212.26 157.48 209.99 159.87 C 209.06 158.04 209.23 155.95 209.22 153.97 Z" />
<path fill="#52a653" d=" M 227.61 153.33 C 227.98 148.40 226.68 143.14 228.59 138.44 C 228.91 139.03 229.55 140.22 229.87 140.81 C 231.39 140.13 232.92 139.46 234.47 138.82 C 234.45 139.31 234.43 140.29 234.42 140.79 C 232.62 141.53 230.20 141.86 229.65 144.08 C 229.28 147.10 229.50 150.15 229.49 153.19 C 229.02 153.22 228.08 153.30 227.61 153.33 Z" />
<path fill="#52a653" d=" M 242.44 139.50 C 247.38 137.40 252.82 142.90 251.50 147.88 C 250.65 153.06 243.28 155.30 239.73 151.37 C 235.79 147.99 237.70 141.04 242.44 139.50 Z" />
<path fill="#52a653" d=" M 257.47 151.54 C 253.27 148.28 254.93 140.56 260.15 139.40 C 262.92 138.53 267.90 139.80 267.42 143.45 C 265.17 142.03 262.35 140.15 259.66 141.67 C 255.74 143.63 256.49 150.72 261.01 151.35 C 263.67 151.97 265.83 149.98 268.07 148.91 C 267.32 153.82 260.60 154.73 257.47 151.54 Z" />
<path fill="#52a653" d=" M 271.79 149.27 C 268.96 143.78 275.73 136.86 281.23 139.87 C 284.31 141.00 285.19 144.28 285.51 147.20 C 281.24 147.24 276.96 147.08 272.71 147.54 C 273.77 148.78 274.68 150.20 276.03 151.15 C 279.09 152.31 281.97 150.27 284.72 149.23 C 282.70 154.87 273.89 154.72 271.79 149.27 Z" />
<path fill="#52a653" d=" M 290.58 140.52 C 292.91 138.35 296.23 139.56 298.85 140.43 C 298.89 140.91 298.97 141.87 299.01 142.35 C 296.20 141.33 293.06 140.63 290.54 142.74 C 290.88 143.31 291.56 144.43 291.91 144.99 C 293.83 145.42 295.74 145.92 297.64 146.45 C 298.18 146.83 299.25 147.61 299.79 147.99 C 299.52 149.46 299.93 151.42 298.51 152.38 C 295.33 154.62 291.16 153.21 288.09 151.49 C 289.27 150.21 290.64 150.51 291.94 151.36 C 293.59 151.44 295.26 151.54 296.91 151.33 C 297.80 150.44 297.55 149.11 297.73 147.99 C 294.83 147.10 291.44 146.95 289.15 144.76 C 289.05 143.24 289.01 141.34 290.58 140.52 Z" />
<path fill="#52a653" d=" M 306.59 139.61 C 309.28 138.81 311.95 140.14 314.51 140.82 C 314.48 141.25 314.42 142.11 314.39 142.54 C 311.05 141.66 306.62 140.01 304.71 144.08 C 307.56 145.34 310.82 145.78 313.44 147.51 C 315.54 149.39 313.81 152.64 311.47 153.32 C 308.35 154.00 304.09 153.76 302.75 150.29 C 305.73 150.98 308.80 152.23 311.87 151.21 C 312.05 150.64 312.43 149.51 312.61 148.94 C 310.11 147.30 307.02 147.01 304.44 145.56 C 302.17 143.61 304.49 140.57 306.59 139.61 Z" />
<path fill="#52a653" d=" M 370.00 140.06 C 375.26 138.05 381.22 144.63 378.61 149.68 C 376.74 154.73 368.93 155.43 366.17 150.85 C 363.53 147.07 365.62 141.39 370.00 140.06 Z" />
<path fill="#52a653" d=" M 341.24 138.94 C 345.31 141.79 345.41 147.43 348.00 151.39 C 348.77 149.61 349.67 147.87 350.16 145.98 C 349.76 143.53 348.98 141.16 348.60 138.71 C 349.74 140.30 350.81 141.94 351.81 143.63 C 352.64 141.94 353.54 140.29 354.55 138.71 C 354.45 141.17 353.52 143.48 353.16 145.90 C 353.53 147.78 354.43 149.50 355.12 151.28 C 357.52 147.24 358.23 142.07 362.03 138.98 C 360.96 144.17 358.23 148.77 356.27 153.63 C 355.82 153.65 354.91 153.69 354.46 153.71 C 353.33 152.03 353.33 148.78 351.24 148.20 C 350.08 150.18 349.20 152.30 348.18 154.35 C 344.57 149.96 342.66 144.36 341.24 138.94 Z" />
<path fill="#52a653" d=" M 383.44 153.81 C 383.91 149.05 382.30 143.78 384.57 139.37 C 384.81 139.95 385.28 141.11 385.52 141.69 C 387.45 140.60 389.57 139.89 391.75 140.73 C 390.01 141.52 388.25 142.23 386.48 142.90 C 385.07 146.37 385.46 150.15 385.43 153.80 C 384.93 153.80 383.94 153.81 383.44 153.81 Z" />
<path fill="#ffffff" d=" M 272.71 145.12 C 274.15 143.47 275.44 140.89 278.04 141.19 C 280.83 140.75 282.45 143.26 283.95 145.12 C 280.20 145.30 276.46 145.27 272.71 145.12 Z" />
<path fill="#ffffff" d=" M 211.60 143.08 C 213.03 140.76 215.90 141.35 218.19 141.01 C 219.99 143.05 221.92 145.81 220.38 148.60 C 218.88 152.23 213.55 152.21 211.61 148.97 C 211.12 147.06 211.04 144.97 211.60 143.08 Z" />
<path fill="#ffffff" d=" M 240.58 149.41 C 237.86 146.25 240.78 140.40 245.01 141.19 C 247.33 140.93 249.14 143.12 249.67 145.18 C 250.27 147.62 248.36 149.57 247.08 151.40 C 244.84 151.12 241.88 151.78 240.58 149.41 Z" />
<path fill="#ffffff" d=" M 369.15 142.52 C 370.90 142.07 372.83 141.82 374.58 142.42 C 376.24 143.40 376.71 145.45 377.63 147.02 C 376.42 149.27 375.17 152.44 372.00 151.85 C 366.95 152.53 365.57 145.13 369.15 142.52 Z" />
<path fill="#ffffff" d=" M 325.85 147.73 C 327.66 147.39 329.51 147.56 331.35 147.57 C 331.42 148.07 331.58 149.07 331.65 149.57 C 331.27 150.06 330.50 151.04 330.12 151.53 C 328.47 151.58 326.83 151.62 325.20 151.65 C 325.01 150.26 324.28 148.60 325.85 147.73 Z" />
</svg>
