<svg width="45" height="44" viewBox="0 0 45 44" fill="none" xmlns="http://www.w3.org/2000/svg">
<g clip-path="url(#clip0_243_9)">
<path d="M6.56259 22C6.59071 22 6.61509 21.9927 6.64134 21.9927L8.40384 29.7403C7.69935 30.0458 7.08287 30.5165 6.60908 31.1107C6.13529 31.705 5.81885 32.4044 5.68784 33.147C5.55683 33.8895 5.61529 34.6522 5.85805 35.3673C6.10081 36.0825 6.52036 36.728 7.07946 37.2465C7.63856 37.7651 8.31993 38.1407 9.0631 38.34C9.80628 38.5393 10.5883 38.5562 11.3397 38.3891C12.0912 38.222 12.7888 37.8762 13.3708 37.3822C13.9527 36.8882 14.4009 36.2615 14.6757 35.5575L28.142 37.752C28.1738 38.5638 28.4266 39.3526 28.8741 40.037C29.3217 40.7215 29.9479 41.2768 30.6882 41.6457C31.4284 42.0146 32.2559 42.1838 33.0853 42.1358C33.9147 42.0877 34.716 41.8242 35.4065 41.3724C36.0971 40.9207 36.6519 40.2969 37.0137 39.5656C37.3755 38.8343 37.5312 38.0218 37.4648 37.212C37.3985 36.4022 37.1124 35.6244 36.636 34.9588C36.1597 34.2931 35.5104 33.7638 34.7551 33.4253L38.3213 18.3223C38.3607 18.3223 38.3963 18.3333 38.4376 18.3333C39.242 18.3354 40.0335 18.135 40.7358 17.7514C41.4381 17.3678 42.0276 16.8139 42.4477 16.1431C42.8677 15.4722 43.1041 14.707 43.1341 13.921C43.1641 13.1349 42.9867 12.3546 42.619 11.655C42.2513 10.9554 41.7056 10.3601 41.0345 9.9264C40.3634 9.49268 39.5894 9.23514 38.7871 9.17856C37.9847 9.12197 37.1809 9.26824 36.4531 9.60329C35.7253 9.93835 35.0979 10.4509 34.6313 11.0917L26.1376 7.403C26.3032 6.68967 26.2918 5.94795 26.1043 5.23982C25.9168 4.53169 25.5587 3.87772 25.0599 3.33256C24.5611 2.7874 23.9361 2.36688 23.2372 2.10616C22.5382 1.84543 21.7856 1.75207 21.0422 1.83386C20.2988 1.91566 19.5862 2.17025 18.964 2.57634C18.3418 2.98244 17.828 3.52825 17.4656 4.16817C17.1032 4.80809 16.9027 5.52352 16.8809 6.25468C16.859 6.98584 17.0165 7.7115 17.3401 8.371L9.65821 14.0012C9.09104 13.5101 8.41039 13.1611 7.67478 12.9842C6.93918 12.8072 6.17062 12.8075 5.43517 12.9851C4.69973 13.1628 4.0194 13.5124 3.45268 14.0039C2.88596 14.4954 2.4498 15.1142 2.18169 15.807C1.91358 16.4997 1.82155 17.2458 1.9135 17.981C2.00545 18.7163 2.27863 19.4187 2.70957 20.0279C3.1405 20.6371 3.7163 21.1348 4.38745 21.4783C5.05861 21.8219 5.80504 22.0009 6.56259 22ZM8.47134 21.593C9.52127 21.1314 10.3618 20.3096 10.8338 19.283L18.7576 21.0063C18.7576 21.032 18.7501 21.0558 18.7501 21.0833C18.7498 21.9816 19.0211 22.86 19.5301 23.6078L12.8926 30.0978C12.1285 29.5998 11.2309 29.3338 10.3126 29.3333C10.2863 29.3333 10.2601 29.3407 10.2338 29.3407L8.47134 21.593ZM21.9413 16.7622C21.3312 16.9632 20.77 17.2849 20.2925 17.7072C19.8151 18.1295 19.4318 18.6435 19.1663 19.217L11.2426 17.4937C11.2426 17.468 11.2501 17.4442 11.2501 17.4167C11.2467 16.7402 11.0884 16.073 10.787 15.4642L18.467 9.83216C19.2266 10.4911 20.1862 10.8884 21.1988 10.9633L21.9413 16.7622ZM26.2501 20.1667V22C26.2501 22.4862 26.0525 22.9525 25.7009 23.2964C25.3493 23.6402 24.8724 23.8333 24.3751 23.8333H22.5001C22.0028 23.8333 21.5259 23.6402 21.1743 23.2964C20.8226 22.9525 20.6251 22.4862 20.6251 22V20.1667C20.6251 19.6804 20.8226 19.2141 21.1743 18.8703C21.5259 18.5265 22.0028 18.3333 22.5001 18.3333H24.3751C24.8724 18.3333 25.3493 18.5265 25.7009 18.8703C26.0525 19.2141 26.2501 19.6804 26.2501 20.1667ZM28.4495 35.9425L14.9813 33.748C14.954 32.9089 14.6899 32.0936 14.2182 31.3922L20.8557 24.9022C21.432 25.2856 22.0914 25.5332 22.7821 25.6254C23.4728 25.7177 24.1759 25.6521 24.8363 25.4338L29.7713 34.1238C29.1832 34.6138 28.7284 35.2386 28.4476 35.9425H28.4495ZM11.2501 36.6667H9.37509C8.87781 36.6667 8.40089 36.4735 8.04926 36.1297C7.69763 35.7859 7.50009 35.3196 7.50009 34.8333V33C7.50009 32.5138 7.69763 32.0474 8.04926 31.7036C8.40089 31.3598 8.87781 31.1667 9.37509 31.1667H11.2501C11.7474 31.1667 12.2243 31.3598 12.5759 31.7036C12.9275 32.0474 13.1251 32.5138 13.1251 33V34.8333C13.1251 35.3196 12.9275 35.7859 12.5759 36.1297C12.2243 36.4735 11.7474 36.6667 11.2501 36.6667ZM35.6251 36.6667V38.5C35.6251 38.9862 35.4275 39.4525 35.0759 39.7964C34.7243 40.1402 34.2474 40.3333 33.7501 40.3333H31.8751C31.3778 40.3333 30.9009 40.1402 30.5493 39.7964C30.1976 39.4525 30.0001 38.9862 30.0001 38.5V36.6667C30.0001 36.1804 30.1976 35.7141 30.5493 35.3703C30.9009 35.0265 31.3778 34.8333 31.8751 34.8333H33.7501C34.2474 34.8333 34.7243 35.0265 35.0759 35.3703C35.4275 35.7141 35.6251 36.1804 35.6251 36.6667ZM32.9288 33.011C32.8913 33.011 32.8538 33 32.8126 33C32.3362 33.0066 31.8638 33.0851 31.412 33.2328L26.477 24.5428C27.1583 23.9944 27.6605 23.2629 27.9217 22.4387C28.1829 21.6145 28.1917 20.7335 27.947 19.9045L34.7682 16.5678C35.2262 17.1421 35.8176 17.6015 36.4932 17.908L32.9288 33.011ZM37.5001 11H39.3751C39.8724 11 40.3493 11.1932 40.7009 11.537C41.0525 11.8808 41.2501 12.3471 41.2501 12.8333V14.6667C41.2501 15.1529 41.0525 15.6192 40.7009 15.963C40.3493 16.3068 39.8724 16.5 39.3751 16.5H37.5001C37.0028 16.5 36.5259 16.3068 36.1743 15.963C35.8226 15.6192 35.6251 15.1529 35.6251 14.6667V12.8333C35.6251 12.3471 35.8226 11.8808 36.1743 11.537C36.5259 11.1932 37.0028 11 37.5001 11ZM33.8645 12.7655C33.6929 13.4798 33.7149 14.2254 33.9282 14.9288L27.107 18.2655C26.7086 17.769 26.209 17.359 25.64 17.0614C25.0709 16.7638 24.4448 16.5851 23.8013 16.5367L23.0588 10.7378C23.9873 10.4325 24.7945 9.85031 25.367 9.07316L33.8645 12.7655ZM18.7501 7.33333V5.5C18.7501 5.01377 18.9476 4.54745 19.2993 4.20364C19.6509 3.85982 20.1278 3.66666 20.6251 3.66666H22.5001C22.9974 3.66666 23.4743 3.85982 23.8259 4.20364C24.1775 4.54745 24.3751 5.01377 24.3751 5.5V7.33333C24.3751 7.81956 24.1775 8.28588 23.8259 8.62969C23.4743 8.97351 22.9974 9.16666 22.5001 9.16666H20.6251C20.1278 9.16666 19.6509 8.97351 19.2993 8.62969C18.9476 8.28588 18.7501 7.81956 18.7501 7.33333ZM3.75009 16.5C3.75009 16.0138 3.94763 15.5475 4.29926 15.2036C4.65089 14.8598 5.12781 14.6667 5.62509 14.6667H7.50009C7.99737 14.6667 8.47428 14.8598 8.82591 15.2036C9.17754 15.5475 9.37509 16.0138 9.37509 16.5V18.3333C9.37509 18.8196 9.17754 19.2859 8.82591 19.6297C8.47428 19.9735 7.99737 20.1667 7.50009 20.1667H5.62509C5.12781 20.1667 4.65089 19.9735 4.29926 19.6297C3.94763 19.2859 3.75009 18.8196 3.75009 18.3333V16.5Z" fill="#A00F1F"/>
</g>
<defs>
<clipPath id="clip0_243_9">
<rect width="45" height="44" fill="white"/>
</clipPath>
</defs>
</svg>
