<svg width="50" height="50" viewBox="0 0 50 50" fill="none" xmlns="http://www.w3.org/2000/svg">
<path d="M12.0588 44.0983H3V29.7079H12.0588V44.0983ZM14.7059 44.0983H23.8235V14.9031H14.7059V44.0983ZM26.3529 44.0983H35.4706V24.2598H26.3529V44.0983ZM37.9412 44.0983H47.0588V16.9758H37.9412V44.0983ZM7.52941 25.4441C9.70588 25.4441 11.4118 23.6676 11.4118 21.5357C11.4118 20.5289 11.0588 19.5814 10.4118 18.8708L17.2941 10.284C17.8824 10.6393 18.5882 10.817 19.2941 10.817C20.1765 10.817 21.0588 10.5209 21.7647 9.92867L27.7059 15.3769C27.2941 16.0283 27.0588 16.7981 27.0588 17.568C27.0588 19.7591 28.8235 21.4764 30.9412 21.4764C33.1176 21.4764 34.8235 19.6999 34.8235 17.568C34.8235 16.9166 34.6471 16.2651 34.3529 15.7322L40.4118 11.1131C41.1176 11.8237 42.1177 12.2382 43.1177 12.2382C45.2941 12.2382 47 10.4616 47 8.32974C47 6.13863 45.2353 4.42127 43.1177 4.42127C40.9412 4.42127 39.2353 6.19785 39.2353 8.32974C39.2353 8.98116 39.4118 9.63257 39.7059 10.1655L33.6471 14.7847C32.9412 14.074 31.9412 13.6595 30.9412 13.6595C30.0588 13.6595 29.1765 13.9556 28.4706 14.5478L22.5294 9.0996C22.9412 8.44818 23.1765 7.67833 23.1765 6.90848C23.1765 4.71736 21.4118 3 19.2941 3C17.1765 3 15.4118 4.77658 15.4118 6.90848C15.4118 7.91521 15.7647 8.8035 16.4118 9.57335L9.47059 18.1009C8.88235 17.7456 8.17647 17.568 7.52941 17.568C5.35294 17.568 3.64706 19.3445 3.64706 21.4764C3.64706 23.6083 5.35294 25.4441 7.52941 25.4441ZM0 45.8156V47H50V45.8156H0Z" fill="#A00F1F"/>
</svg>
