<svg width="30" height="30" viewBox="0 0 30 30" fill="none" xmlns="http://www.w3.org/2000/svg">
<path d="M5.27273 12.2727C4.56982 12.2727 4 11.7029 4 11C4 10.2971 4.56982 9.72727 5.27273 9.72727H24.3636C25.0665 9.72727 25.6364 10.2971 25.6364 11C25.6364 11.7029 25.0665 12.2727 24.3636 12.2727H5.27273ZM5.27273 18C4.56982 18 4 17.4302 4 16.7273C4 16.0244 4.56982 15.4545 5.27273 15.4545H24.3636C25.0665 15.4545 25.6364 16.0244 25.6364 16.7273C25.6364 17.4302 25.0665 18 24.3636 18H5.27273ZM5.27273 6.54545C4.56982 6.54545 4 5.97564 4 5.27273C4 4.56982 4.56982 4 5.27273 4H24.3636C25.0665 4 25.6364 4.56982 25.6364 5.27273C25.6364 5.97564 25.0665 6.54545 24.3636 6.54545H5.27273Z" fill="black"/>
<path d="M5.27273 23.9986C4.56982 23.9986 4 23.4288 4 22.7259C4 22.0229 4.56982 21.4531 5.27273 21.4531H24.3636C25.0665 21.4531 25.6364 22.0229 25.6364 22.7259C25.6364 23.4288 25.0665 23.9986 24.3636 23.9986H5.27273Z" fill="black"/>
</svg>
